<?xml version="1.0" encoding="utf-8"?>
<!-- Generator: Adobe Illustrator 21.1.0, SVG Export Plug-In . SVG Version: 6.00 Build 0)  -->
<svg version="1.1" id="_x38_13c2686-e70f-4fb0-bf6b-a2eb7b1db384"
	 xmlns="http://www.w3.org/2000/svg" xmlns:xlink="http://www.w3.org/1999/xlink" x="0px" y="0px" viewBox="0 0 1121 851.8"
	 style="enable-background:new 0 0 1121 851.8;" xml:space="preserve">
<style type="text/css">
	.st0{opacity:0.21;fill:#3C74F3;enable-background:new    ;}
	.st1{opacity:0.9;}
	.st2{opacity:0.1;fill:#007BFF;enable-background:new    ;}
	.st3{fill:url(#SVGID_1_);}
	.st4{fill:#A1616A;}
	.st5{opacity:0.1;enable-background:new    ;}
	.st6{fill:#FF748E;}
	.st7{fill:#5E5A6B;}
	.st8{fill:#464353;}
	.st9{opacity:0.1;}
	.st10{fill:#9F9EFF;}
	.st11{fill:url(#SVGID_2_);}
	.st12{fill:#514E7F;}
	.st13{opacity:0.2;enable-background:new    ;}
	.st14{fill:#007BFF;}
	.st15{opacity:0.15;enable-background:new    ;}
	.st16{fill:#945B79;}
	.st17{fill:#FFC1C7;}
	.st18{fill:#FF6584;}
	
		.st19{opacity:0.3;fill:none;stroke:#000000;stroke-width:0.75;stroke-miterlimit:10;stroke-dasharray:12;enable-background:new    ;}
	.st20{opacity:0.5;fill:#007BFF;enable-background:new    ;}
	.st21{fill:#227C6A;}
	.st22{fill:#EA9957;}
	.st23{fill:#75757F;}
	.st24{fill:#DD8A4B;}
	.st25{fill:#3F3D56;}
	.st26{fill:#BC572A;}
	.st27{fill:#F4AA67;}
	.st28{fill:#515151;}
	.st29{fill:#59595B;}
	.st30{fill:#FFDF9F;}
	.st31{fill:#484849;}
	.st32{fill:#3D3D3D;}
	.st33{fill:#FFE5B6;}
	.st34{fill:#EAC494;}
	.st35{fill:#F4D59F;}
	.st36{fill:#AD4921;}
	.st37{fill:#ED9F5F;}
	.st38{fill:#268774;}
	.st39{fill:#CBCBD8;}
	.st40{fill:#A5A5B5;}
	.st41{fill:#B5B5C4;}
	.st42{fill:#7E7E8E;}
</style>
<path id="svg_1" class="st0" d="M679.8,95.1c-95.9,0.8-188.1-23.5-276.2-50.6S228-13,133.9-25.4C73.4-33.5,4.6-32.2-43-1.1
	c-45.8,29.9-59.3,78.9-66,124.1c-5,34-7.5,69.7,10.2,100.7c12.3,21.5,33.5,39.1,48.4,59.6c51.9,71.2,19.7,162.9-31.7,236.5
	c-24.1,34.5-52.3,67.6-70.7,104.1c-18.4,36.5-26,77.7-7.9,113.4c18,35.4,59,60.9,103.2,78.2c89.6,35.2,194.1,42.1,295.9,44.4
	c225.3,4.9,451.1-10.1,676.3-25.1c83.4-5.5,167.1-11.1,248.8-26.1c45.4-8.3,92.1-20.4,124.4-46.5c41-33.1,49.7-86.9,20.3-125.2
	c-49.3-64.3-180.3-75.5-215.6-145.3c-19.4-38.4-2.1-82.7,23-120c54.2-80.1,146.9-152.1,149.1-241.2c1.5-61.2-46.1-120.5-117.5-146.6
	C1072.4-43.4,970-35.5,917.1,16.8C862.6,70.6,764.5,94.4,679.8,95.1z"/>
<title>interaction design</title>
<g class="st1">
	<path class="st2" d="M0,206.8c0,0.9,0,1.9,0.1,2.8C0.5,219.8,1.7,230,3.6,240c5.7,29.8,17.7,59.6,31.9,88c0.2,0.5,0.5,0.9,0.7,1.4
		c0.3,0.7,0.7,1.3,1,2c0.7,1.4,1.4,2.7,2.1,4.1l1.6,3l0,0c0.4,0.7,0.8,1.4,1.1,2.2c0.2,0.4,0.5,0.9,0.7,1.3
		c3.9,7.5,8.2,14.7,12.8,21.8l0.5,0.8c5.8,8.8,12.7,16.8,20.4,24c13.5,12.5,30.7,21.5,49.1,26.6c0.6,0.2,1.2,0.3,1.9,0.5
		c1.2,0.3,2.4,0.6,3.6,0.9c0.8,0.2,1.7,0.4,2.5,0.6c5.9,1.3,11.8,2.1,17.8,2.6c3.2,0.3,6.5,0.4,9.7,0.4h1.4c4,0,8-0.3,11.9-0.7
		l0.6-0.1c10.8-1.2,21.3-4,31.2-8.4c1.6-0.7,3.1-1.5,4.6-2.3l0.8-0.4l0.4-0.2l0,0c5.1-2.7,10-5.8,14.7-9.2
		c5.5-3.9,10.6-8.1,15.6-12.5c7.4-6.5,14.4-13.4,21-20.7l0.3-0.3c2.8-3.2,5.5-6.4,8.1-9.8v-0.1c1.8-2.3,3.5-4.7,5.1-7.1
		c0.1-0.1,0.1-0.2,0.2-0.3c2.4-3.6,4.6-7.2,6.6-11l0.5-0.9c1.5-2.8,2.8-5.6,4-8.4c6.9-16.1,10-33.5,11.7-50.9
		c3.5-35.3,1.4-71.6-7.9-106.9c-1.3-4.8-2.7-9.5-4.2-14.3c-0.2-0.6-0.4-1.3-0.6-1.9c-0.3-1-0.7-2-1-3.1c-0.1-0.4-0.3-0.9-0.4-1.3
		c-1.3-3.8-2.8-7.7-4.3-11.4l-0.8-2c-0.9-2-1.7-4.1-2.6-6.1c-0.8-1.9-1.7-3.7-2.6-5.6c-0.1-0.3-0.3-0.6-0.4-0.9
		c-7.7-15.8-17.8-31.2-32.2-42.8c-1-0.8-2-1.6-3-2.3c-1.5-1.1-3-2.2-4.6-3.2l-1.1-0.7l-0.4-0.3l-0.3-0.2l-0.2-0.1
		c-0.8-0.5-1.6-1-2.5-1.4s-1.7-0.9-2.6-1.3l0,0h-0.1l-0.3-0.2c-0.7-0.3-1.4-0.7-2-1l-0.7-0.3l-0.3-0.1l-1.1-0.5
		c-5.1-2.1-10.5-3.7-15.9-4.8c-3-0.6-6.1-0.9-9.2-1.1c-4.7-0.3-9.3,0-13.9,0.8c-0.7,0.1-1.4,0.3-2.1,0.4c-5.8,1.2-11.3,3.6-16.1,7
		c-6.3,4.6-10.7,10.7-14.8,17l-0.4,0.6c-0.7,1.1-1.3,2.1-2,3.2c-2.3,3.7-4.6,7.5-7.1,11.2c-2.3,3.4-4.6,6.8-7.2,10
		c-2.6,3.2-5.4,6.3-8.4,9.1c-0.4,0.4-0.9,0.8-1.4,1.3c-5.6,5-12,8.9-18.9,11.6c-6.3,2.4-13,3.4-19.5,2.1l0,0c-1.9-0.4-3.7-1-5.4-1.7
		c-3.3-1.4-6.4-2.9-9.6-4.1c-5.6-2.4-11.5-4.1-17.5-5l0,0c-6.2-0.8-12.6-0.1-18.5,2c-1,0.4-1.9,0.8-2.9,1.2
		c-4.4,1.9-8.4,4.6-11.8,7.9c-0.4,0.4-0.8,0.8-1.2,1.2c-8.8,8.9-13.6,21.3-16.2,33.4C0.9,183.5-0.2,195.2,0,206.8z"/>
	
		<linearGradient id="SVGID_1_" gradientUnits="userSpaceOnUse" x1="1424.3412" y1="407.95" x2="1424.3412" y2="827.8572" gradientTransform="matrix(-1 0 0 -1 1646.72 827.9)">
		<stop  offset="0" style="stop-color:#808080;stop-opacity:0.25"/>
		<stop  offset="0.54" style="stop-color:#808080;stop-opacity:0.12"/>
		<stop  offset="1" style="stop-color:#808080;stop-opacity:0.1"/>
	</linearGradient>
	<path class="st3" d="M127.5,412.7l-2,2.3c0.6,0.2,1.2,0.3,1.9,0.5c1.2,0.3,2.4,0.6,3.6,0.9c0.8,0.2,1.7,0.4,2.5,0.6
		c5.9,1.3,11.8,2.1,17.8,2.6c3.2,0.3,6.5,0.4,9.7,0.4c0.6-0.9,1.2-1.9,1.6-2.9c1.3-3.1,6.5-8.6,12-13.8c-0.1,0.9-0.2,1.4-0.2,1.4
		v0.4l-0.1,14.3l0.6-0.1c10.8-1.2,21.3-4,31.2-8.4c1.6-0.7,3.1-1.5,4.6-2.3l0.8-0.4l0.4-0.2c0.7-3.4,1.3-6.7,1.8-9.4l0.1-0.4
		c0.1-0.4,0.1-0.7,0.2-1s0.1-0.6,0.2-0.9s0.1-0.4,0.1-0.6c0.3-1.8,0.5-2.9,0.5-2.9c0-0.5,0.1-1.1,0.2-1.6l0,0c0.4-3,1.8-5.9,3.9-8.1
		c0.9-0.9,1.5-2,1.9-3.2l0,0c1.1-3.4,0.9-7.8,0.8-9.9c0-0.7-0.1-1.1-0.1-1.1s3.8-2,6.1-8.2c0.5-1.3,0.8-2.6,1.1-4
		c1.6-8.8,6.7-27.3,7.3-29.6l0,0l0.1-0.2c0,0,0.1-0.3,0.4-0.9c0-0.1,0-0.1,0.1-0.2l0.1-0.2l0,0c2.3-6.2,11-31.3,10.3-47.9
		c-0.8-19.1,1.2-29.1,1.2-29.1l2.3-41.6v-0.4l0.1-2.4v-0.7c0.3,0.3,0.6,0.5,0.9,0.7l0.5,0.5l0.2,0.2c0,0,0-0.2,0-0.5
		c0.4,0.3,0.5,0.5,0.5,0.5s1-16.1,0.9-25.3c0-1.1,0-2.1-0.1-2.9c6.8-2.3,17-6.1,17.6-8c0.5-1.6,4.3-5.1,7.6-7.9l1.8-1.5l0.9-0.8
		c1.3-1.1,2.2-1.8,2.2-1.8c-0.3,0-0.5-0.1-0.7-0.3c0.4-0.2,0.8-0.4,1.1-0.6c1-0.5,2-1.2,3.2-1.9c4.8-3.2,10.7-8.2,14-13
		c1.8-2.7,2.8-5.4,2.4-7.6c0-0.2-0.1-0.4-0.2-0.6l13.8-19.9l1.6-2.3c1-1.5,0.9-3.4-0.3-4.7l0.1-0.1l-0.1-0.1l-0.6-0.4l0.1,0.1
		c-0.9-0.5-2-0.3-2.6,0.6l-0.2,0.4l-13.3,19.1l-2.4,3.4c-5.2-1.6-12.8,2.9-18.7,7.4c-2.2,1.6-4.1,3.3-5.7,4.6l-1,0.9
		c-0.5-1-0.7-1.7-0.7-1.7c-0.3,3.2-11.5,7.9-14,9.6c-1.2,0.7-2.5,1.2-3.9,1.3c0.4-12-8.9-24.6-8.9-24.6l-18-22.9l0,0l-1.1-1.4
		l-3.6-4.5c-0.3-1.4-0.4-2.8-0.3-4.3c0-2.3,0.4-4.7,1-6.9c0.1-0.4,0.2-0.7,0.4-1.1c0.3-1,0.8-2,1.3-3c0.2-0.4,0.4-0.8,0.6-1.1h0.1
		c-0.4,1.4-0.8,2.8-1.1,4.2c-0.1,0.4-0.1,0.8-0.2,1.1l-0.1,0.5c-0.1,0.6-0.1,1.2-0.1,1.8c0,0.1,0,0.2,0,0.3c0.2,2.4,2,11.2,4.4,10.8
		c0.5,0,1-0.2,1.3-0.6c0.3-0.3,0.5-0.6,0.7-1c0.2-0.3,0.3-0.6,0.4-0.8c0.2-0.4,0.3-0.8,0.4-1.2c0.5-2.3,0.7-4.7,0.6-7
		c0,1.1-0.2,2.2-0.4,3.3c0.1-2.5-0.1-5.2-0.2-7.3c0-0.5,0-0.9,0-1.3s0-0.9,0-1.4l0,0c0-0.5,0-0.9,0-1.4h0.1h0.2c0,0.3,0,0.7,0,1.1
		c0-0.4,0-0.8,0-1.1h0.1h0.2c2.3-0.4,4.5-1.1,6.6-2c2.6-1.1,5-2.6,7.2-4.4c0.5,0,1-0.1,1.4-0.2c1.4-0.3,2.6-1,3.6-2l0.2-0.2
		c0.5,1.6,0.2,3.3-0.9,4.6c0,0.1-0.1,0.1-0.1,0.1h0.1c2.9-0.2,5.3-2.4,6.5-5c0-0.1,0.1-0.2,0.1-0.3c1-2.8,1.3-5.9,0.9-8.9
		c-0.4-3-0.7-6-0.6-9c0-0.7,0.1-1.5,0.2-2.2c0-0.1,0-0.2,0-0.3c0.1-0.8,0.1-1.6,0-2.4c0-0.1,0-0.1,0-0.2c0-0.4-0.1-0.9-0.2-1.3h0.1
		c0.7,0,1.3-0.3,1.6-0.9l0.2-0.2c0.2-0.2,0.4-0.4,0.6-0.7c0.2-0.3,0.4-0.6,0.5-1c0.3-0.8,0.5-1.6,0.7-2.4c0.9-3.4,1.3-6.8,1.2-10.3
		c-0.1,1-0.2,2.1-0.4,3.2c0.3-4-0.3-7.8-2.9-10.7c-1.8-2-4.3-3.2-6.8-4.3c-0.9-0.3-1.6-0.9-2.2-1.6c-0.4-0.9-0.7-1.8-0.7-2.7
		c-0.9-5.8-6.3-9.9-11.8-12.2c-7-3-15.4-4.4-22.2-0.7c-3.3,1.8-5.9,4.5-8.8,6.8c-3.7,2.8-8,4.8-12,7.3s-7.8,5.6-9.7,9.8
		s-1.6,9.2-1.1,14c0.3,2.4,0.6,4.9,0.7,7.3c0,0.2,0,0.4,0,0.6c0.2,5.5-0.8,11-3,16.1c-2.2,5.2-5.8,9.8-10.3,13.2
		c-1.1,0.7-2.1,1.5-2.9,2.5c-0.8,1-0.9,2.5-0.2,3.6c0.2,0.3,0.5,0.5,0.8,0.8c0.3,0.2,0.6,0.5,0.9,0.8c0.2,0.3,0.4,0.6,0.5,0.9
		c0.3,0.9,0.3,2,0.1,2.9c0,0.1,0,0.2-0.1,0.3l-0.1,0.5c-1.3,5-4,9.5-7.7,13.1c0.2,1.2,1.6,1.6,2.8,1.8l0,0c3.1,0.5,6.3,0.7,9.4,0.7
		h1.4c-0.1,0.4-0.3,0.7-0.4,1.1l0,0c-0.3,0.9-0.7,1.8-1,2.8l0,0c-1.4,4.3-2.8,9.4-2.2,12.9c1.2,6.7,4.6,37.3,2.9,42.7
		s2.7,44.6,2.7,44.6s0.1,0.6,0.4,1.7c0.3,1.3,0.7,3.3,1.3,5.8c0,0.1-0.1,0.2-0.1,0.3c-2.7,6.4-5.7,13.3-7.3,16.1
		c-2.1,3.8-2.1,17.8,1.2,30.7c1.7,6.6,4.3,12.9,8,17.3c0,0,3.8,5.3,3.5,8c0,0.2-0.1,0.4-0.2,0.6c-0.8,1.6-0.4,4-0.1,5.4
		c0.1,0.6,0.3,0.9,0.3,0.9v1l1.7,36.9c0,3.9-0.3,7.7-0.8,11.6c-4.6,5.7-11.7,14-15.1,15.4c-5.2,2.1-43.8,49-43.8,49s0.3,0.6,0.9,1.5
		L127.5,412.7z"/>
	<path class="st4" d="M282.3,159c-1.1,0.7-2.4,1.2-3.7,1.4c-4.8,0.1-8.8-12.9-8.8-12.9s1.4-1.4,3.6-3.3c6.5-5.8,20-16.4,26.4-10.4
		C306.9,140.4,290.6,154.5,282.3,159z"/>
	<path class="st4" d="M133.5,417c5.9,1.3,11.8,2.1,17.8,2.6c-2.5-4.5-19-9.8-19-9.8l-2.2,2.6l-1.1,1.3l-1.6,1.9
		c1.2,0.3,2.4,0.6,3.6,0.9C131.8,416.6,132.7,416.8,133.5,417z"/>
	<path class="st5" d="M282.3,159c-1.1,0.7-2.4,1.2-3.7,1.4c-4.8,0.1-8.8-12.9-8.8-12.9s1.4-1.4,3.6-3.3
		C274.9,147.7,279.2,157.3,282.3,159z"/>
	<path class="st6" d="M251.3,154.3c0,0,4,0.3,6.5-1.4c2.5-1.7,13.5-6.4,13.8-9.5c0,0,6.5,15.9,10.2,16.5c0,0-11.4,8.9-12.2,11.8
		s-23,9.8-23,9.8L251.3,154.3z"/>
	<path class="st7" d="M251.3,154.3c0,0,4,0.3,6.5-1.4c2.5-1.7,13.5-6.4,13.8-9.5c0,0,6.5,15.9,10.2,16.5c0,0-11.4,8.9-12.2,11.8
		s-23,9.8-23,9.8L251.3,154.3z"/>
	<path class="st5" d="M129,413.6c0.5,0.8,1.2,1.7,2,2.8c0.8,0.2,1.7,0.4,2.5,0.6c5.9,1.3,11.8,2.1,17.8,2.6c-2.5-4.5-19-9.8-19-9.8
		l-2.2,2.6L129,413.6z"/>
	<path class="st7" d="M129.2,410.9c0,0,0.3,0.6,0.9,1.5c1.1,1.6,2.2,3.2,3.5,4.6c5.9,1.3,11.8,2.1,17.8,2.6c3.2,0.3,6.5,0.4,9.7,0.4
		h1.4c0.4-0.6,0.7-1.3,1-2c1.2-2.9,5.9-8,11-13c0.2-0.3,0.5-0.5,0.7-0.7c7.3-7.1,15.2-13.8,15.2-13.8l0.8-48.7c0,0-1.7,2.3-4.2,5.4
		c-4.5,5.6-11.5,13.9-14.8,15.3C167,364.5,129.2,410.9,129.2,410.9z"/>
	<path class="st5" d="M129.2,410.9c0,0,0.3,0.6,0.9,1.5c1.1,1.6,2.2,3.2,3.5,4.6c5.9,1.3,11.8,2.1,17.8,2.6c3.2,0.3,6.5,0.4,9.7,0.4
		h1.4c0.4-0.6,0.7-1.3,1-2c1.2-2.9,5.9-8,11-13c0.2-0.3,0.5-0.5,0.7-0.7c7.3-7.1,15.2-13.8,15.2-13.8l0.8-48.7c0,0-1.7,2.3-4.2,5.4
		c-4.5,5.6-11.5,13.9-14.8,15.3C167,364.5,129.2,410.9,129.2,410.9z"/>
	<path class="st5" d="M149,404c4.2,0.4,8.4,0.4,12.6,0C169.2,403.3,163.5,407.8,149,404z"/>
	<path class="st5" d="M145.6,408.8c0,0,9.9,5.7,13.8,2.8S155.7,414.4,145.6,408.8z"/>
	<path class="st7" d="M185.7,289.2c0.4,0.9,0.5,1.9,0.2,2.8c-0.4,1-0.6,2.1-0.4,3.2c0.1,0.6,0.2,1.3,0.3,1.9
		c0.2,0.7,0.3,1.1,0.3,1.1l1.7,37.5c0,3.8-0.3,7.7-0.8,11.5c-0.5,4-1.5,8.1-3,10.5c-3.4,5.2-7.8,39.2-8.7,46.5l-0.2,1.4l-0.1,13.5
		c10.8-1.2,21.3-4,31.2-8.4c1.6-0.7,3.1-1.5,4.6-2.3l0.8-0.4l0.4-0.2l0,0c0.7-3.5,1.3-6.8,1.8-9.4l0.1-0.4c0.1-0.4,0.1-0.7,0.2-1
		s0.1-0.6,0.2-0.9s0.1-0.4,0.1-0.6c0.2-1.1,0.3-1.8,0.3-1.8c0.1-0.9,0.2-1.9,0.4-2.8l0,0c0.5-2.6,1.7-5,3.6-6.9
		c1.1-1.2,1.9-2.8,2.2-4.4l0,0c0.6-3.2,0.7-6.4,0.3-9.6c0.2-0.1,0.4-0.2,0.5-0.4c1.2-0.8,4.3-3.5,6-9.3c0.2-0.8,0.4-1.7,0.6-2.5
		c1.7-9.3,7.2-29.6,7.2-29.6s0.2-0.5,0.6-1.5l0,0c0.1-0.3,0.3-0.7,0.4-1.1c0-0.1,0-0.1,0.1-0.2l0.1-0.2l0,0
		c2.9-8.2,10.1-30.5,9.5-45.7c-0.8-18.9,1.1-28.8,1.1-28.8l2.4-44v-0.7v-0.4l0.2-4.1l-21.8-0.6h-1.3l-5.2-0.2h-0.2h-0.6l-7-0.2
		l-3.1-0.1l-5.6-0.2H204h-1.1l-4.4-0.1l-12.7,7.4c0,0-0.5,1.2-1.3,3.2c-0.2,0.4-0.4,0.9-0.6,1.4s-0.4,1.1-0.7,1.7l-1.8,4.3
		c-0.2,0.5-0.4,1-0.6,1.5c-2.7,6.4-5.7,13.4-7.3,16.3c-1.9,3.5-2,16,0.6,28c1.6,7.4,4.4,14.7,8.4,19.6
		C183.8,285.3,184.8,287.2,185.7,289.2z"/>
	<path class="st5" d="M199.9,390.3c0,0,7.8,6.1,11,6.1S199.9,390.3,199.9,390.3z"/>
	<path class="st4" d="M246.6,133.9v12.5l-8.3-3.6l-8.2-3.6l-17.9-17.6c0,0-14.2-9.2-21.8-17.6c-4.3-4.8-6.5-9.3-2.7-11.7
		c1.8-1.2,3.5-2.7,4.9-4.3c3.8-4.5,7.1-9.4,9.9-14.6c0.1-0.2,0.2-0.4,0.4-0.6c3.7-6.8,6.1-12.6,6.1-12.6s10.4,3.3,17.1,8
		c0.5,0.4,1,0.8,1.5,1.2c3.7,3.1,5.6,6.6,2.1,10.1c-0.9,0.9-1.7,1.9-2.5,2.9l0,0c-0.6,0.8-1.1,1.6-1.5,2.4c-0.2,0.4-0.4,0.7-0.6,1.1
		c-2.3,4.7-3.1,10-2.3,15.2L246.6,133.9z"/>
	<path class="st8" d="M245.1,44.6c0.4,0.7,1,1.4,1.4,2.2c0.8,1.6,0.7,3.5,0.6,5.3c-0.2,2.8,0,5.7,0.5,8.5c0.6,2.5,1.7,4.9,1.8,7.5
		c0.1,3.6-1.8,7-3.6,10.1c2-0.1,3.9-0.9,5.2-2.4c0.5,1.6,0.1,3.4-1,4.7c3-0.1,5.5-2.5,6.6-5.2c1-2.8,1.3-5.8,0.9-8.8
		c-0.4-2.9-0.7-5.9-0.6-8.9c0.2-1.6,0.3-3.2,0.3-4.8c-0.3-3.2-2.3-6-4.2-8.6l-3.9-5.3c-0.3-0.4-0.6-0.8-1.1-1
		C244.5,36.1,244.1,42.8,245.1,44.6z"/>
	<path class="st5" d="M229.8,79.6c-0.9,0.9-1.7,1.9-2.5,2.9l0,0c-0.6,0.8-1.1,1.6-1.5,2.4c-0.2,0.4-0.4,0.7-0.6,1.1
		c-5-0.3-9.9-1.8-14.2-4.5c-3.2-2-5.9-4.6-8.1-7.6c-0.1-0.2-0.2-0.3-0.4-0.5c0.1-0.2,0.2-0.4,0.4-0.6c3.7-6.8,6.1-12.6,6.1-12.6
		s10.4,3.3,17.1,8c0.5,0.4,1,0.8,1.5,1.2C231.4,72.5,233.3,76,229.8,79.6z"/>
	<path class="st4" d="M256.8,55.1c0,14.4-10.3,26.7-24.4,29.4c-1.8,0.3-3.6,0.5-5.4,0.5h-0.1c-0.3,0-0.6,0-1,0
		c-5.2-0.2-10.3-1.7-14.8-4.5c-3.2-2-5.9-4.5-8.1-7.6c-9.7-13.3-6.8-31.9,6.4-41.7c13.3-9.7,31.9-6.8,41.7,6.4
		C254.8,42.7,256.8,48.8,256.8,55.1z"/>
	<path class="st5" d="M230.9,128.8c0,0,15,8.5,11.2,1.3l-19.6-29l0,0l22.3,28.6c0,0,14.2,19.5,6.4,33c0,0-1.1,11.2,0.2,13.8
		s-0.4,30.9-0.4,30.9s-5.3-4.9-8.1-4s-22.9,2.6-22.9,2.6L230.9,128.8z"/>
	<path class="st5" d="M249.6,201.6l-0.3,5.2c-1.8-1.3-4.3-2.8-6-2.2c-2.8,0.9-22.9,2.7-22.9,2.7l0.9-6.5L249.6,201.6z"/>
	<path class="st8" d="M231.5,128.8c0,0,15,8.5,11.2,1.3l-19.6-29l0,0l22.3,28.6c0,0,14.2,19.5,6.4,33c0,0-1.1,11.2,0.2,13.8
		s-0.4,30.9-0.4,30.9s-5.3-4.9-8.1-4s-22.9,2.6-22.9,2.6L231.5,128.8z"/>
	<path class="st5" d="M239.5,143.4c-0.9,9.1-4.6,19.9-4.6,19.9s-2.6,26.9-6,34.9s-1.9,18.9-3.8,39.2c-0.7,7.3-3,12.3-6.2,15.7
		c-5.2,5.6-12.7,6.7-18.6,6.4c-0.5,0-0.9-0.1-1.4-0.1c-9.5-1-18.6-46.6-18.6-46.6s-4.4-38.8-2.6-44.1s-1.7-35.6-2.8-42.2
		c-0.7-4.2,1.4-11.1,3.1-15.5c1-2.6,1.8-4.4,1.8-4.4s3.2-10.2,8.5-15.5c1.5-1.5,3.5-2.4,5.6-2.4c2.5,0.1,4.9,0.9,7,2.2l0.2,0.2
		c0,0,34.5,35.2,37.7,43.4C239.7,136.6,239.8,139.9,239.5,143.4z"/>
	<path class="st7" d="M238.3,142.8c-0.9,9.1-4.6,19.9-4.6,19.9s-2.6,26.9-6.1,34.9s-1.9,18.9-3.8,39.2c-0.7,7.3-3,12.3-6.2,15.7
		c-5.2,5.6-12.7,6.7-18.6,6.4l-1.4-0.1c-9.5-0.9-18.6-46.6-18.6-46.6s-4.4-38.8-2.6-44.1s-1.7-35.6-2.8-42.2
		c-0.7-4.2,1.4-11.1,3.1-15.5c1-2.6,1.8-4.4,1.8-4.4s3.2-10.2,8.5-15.5c1.5-1.5,3.5-2.4,5.6-2.4c2.5,0.1,4.9,0.9,7,2.2l0.3,0.2
		c0,0,34.5,35.2,37.7,43.4C238.6,136,238.7,139.3,238.3,142.8z"/>
	<path class="st5" d="M199.7,281.5c0,0-7.8,7-10.5,6.7S199.7,281.5,199.7,281.5z"/>
	<path class="st5" d="M201.8,288.2c0,0-8.2,3.8-10.7,4.4S198.6,287.2,201.8,288.2z"/>
	<path class="st5" d="M233.7,183.6c0,0,12.2,0.1,14.1,4S237.7,182,233.7,183.6z"/>
	<path class="st5" d="M232,190.3c0,0,9.4,2,12.2,4.3S232,190.3,232,190.3z"/>
	<path class="st5" d="M216.2,167.1c0,0-1.1,38.5-5.3,43.5S216.2,167.1,216.2,167.1z"/>
	<path class="st5" d="M205.7,275.9c0,0-7.8,34,7.9,36.1s10.9-38.6,10.9-38.6L205.7,275.9z"/>
	<path class="st4" d="M205.1,275.4c0,0-7.8,34,7.9,36.1s10.9-38.6,10.9-38.6L205.1,275.4z"/>
	<path class="st5" d="M256.6,51.8c-0.4-0.6-0.8-1.3-1.1-2.1c-2.1-4.3-7.5-2.2-11.4-0.1l-2.1,2.7c-1,1.1-1.8,2.4-2.4,3.7
		c-0.4,1.1-0.7,2.2-1,3.3c-0.5,1.9-1.3,3.8-2.1,5.6c-2.4,6.2-3.8,12.8-4.2,19.5c-1.8,0.3-3.6,0.5-5.4,0.5h-0.1v-0.1
		c0.2-0.8,0.4-1.5,0.5-2.3l0,0c0.8-4.3,0.9-8.7,0.3-13c0-0.1,0-0.2,0-0.3c-0.1-1-0.3-1.9-0.4-2.9c-0.4,0.7-0.7,1.3-1.1,2
		c-2.4,4.5-4.9,8.8-9.4,10.8c-1.8,0.7-3.7,1.1-5.7,1.3c-2.4,0.1-4.8,0.5-7.1,1.2c-0.8,0.2-1.5,0.7-2.1,1.3c-0.6,0.9-1,2-1,3.1
		c-0.2,1.5-0.6,2.9-1.1,4.3c-2,5.2-5.2,9.9-9.2,13.8l-1,1c-1.7,1.8-3.8,3.2-6.1,4.3c-2.1,0.7-4.3,1.1-6.5,1c1-2.6,1.8-4.4,1.8-4.4
		s3.2-10.2,8.5-15.5c1.5-1.5,3.5-2.4,5.6-2.4c3.9-4.7,7.3-9.8,10.2-15.2c-9.8-13.3-7-31.9,6.3-41.7s31.9-7,41.7,6.3
		C254.1,41.6,256.1,46.6,256.6,51.8L256.6,51.8z"/>
	<path class="st8" d="M258.5,28.5c-1.8-2-4.2-3.1-6.6-4.3c-0.8-0.3-1.6-0.9-2.1-1.6c-0.4-0.8-0.6-1.8-0.7-2.7
		c-0.8-5.8-6.2-9.8-11.5-12.1c-6.9-3-15.1-4.3-21.7-0.7c-3.2,1.7-5.7,4.5-8.6,6.7c-3.7,2.8-7.9,4.8-11.8,7.2s-7.6,5.5-9.5,9.8
		c-2.9,6.5-0.7,14-0.4,21.1c0.6,11.2-4,22.9-13.1,29.6c-1.1,0.7-2.1,1.5-2.9,2.5c-0.8,1-0.9,2.4-0.2,3.6c0.4,0.6,1.2,1,1.7,1.6
		c1,1.2,0.8,3,0.4,4.5c-1.3,4.9-3.9,9.4-7.6,13c0.1,1.2,1.6,1.6,2.7,1.8c3.1,0.5,6.2,0.7,9.3,0.7c4.9,0.4,9.7-1.5,13-5.2
		c5.5-5.2,10.2-11.7,11.4-19.1c0.1-1.1,0.4-2.2,1-3.1c0.6-0.6,1.3-1,2.1-1.3c4.1-1.4,8.8-0.7,12.8-2.5c5.2-2.3,7.7-7.7,10.4-12.8
		c0.1,1,0.3,1.9,0.4,2.9c0.8,5.2,0.5,10.5-0.8,15.6c-0.7,2.9-1.8,5.8-1.7,8.7c0.1,2.2,2.3,13.8,5.3,10.3s1.9-11.1,1.9-15.4
		c0-8,1.5-16,4.3-23.5c0.7-1.9,1.5-3.7,2.1-5.6c0.3-1.1,0.6-2.2,1-3.3c0.6-1.3,1.4-2.6,2.4-3.7l2.1-2.7c3.9-2.1,9.3-4.2,11.4,0.1
		c0.8,1.7,1.2,3.5,3.3,1.9c1.2-1,1.6-2.8,2-4.3C261.6,40.2,262.7,33.1,258.5,28.5z"/>
	<path class="st5" d="M218.5,132.8c-0.8-20.4-29.4-24.6-36-5.3c-0.1,0.1-0.1,0.3-0.1,0.4c-4.4,13.1-2.5,46.2-2.5,46.2
		s0.6,22.2,2.7,29.6s7.9,28.6,7.9,32s5.4,16.5,7.7,17.4s3.5,8.3,4,9.7s2.3,18.6,2.3,18.6s21.4-1.3,21.8-4.7s-4.7-20.1-4.7-20.1
		s-3.8-6.8-4.3-12.3s-3.5-8-2.9-11.7s-1.7-5.7-1.7-8.1s-1.7-9.1-1.7-9.1s-3.6-2.8-3-6.3s-5.1-10.2-3.6-12.7s1.9-8.5,1.9-8.5
		s1.9-27.3,3.2-34.7s9.1-19.3,9.1-19.3S218.6,133.4,218.5,132.8z"/>
	<path class="st5" d="M217.7,252.5c-5.2,5.6-12.7,6.7-18.6,6.4c-0.7-2.6-1.7-5.8-3.1-6.4c-2.3-1-7.7-14-7.7-17.4s-5.9-24.6-8-32
		s-2.6-29.6-2.6-29.6s-1.9-33.1,2.5-46.2c0-0.1,0.1-0.3,0.1-0.4c6.7-19.3,35.2-15.1,36,5.3c0,0.6,0,0.9,0,0.9s-7.8,11.9-9.1,19.3
		s-3.2,34.7-3.2,34.7s-0.4,6.1-1.9,8.5s4.2,9.3,3.6,12.7s3,6.3,3,6.3s1.7,6.6,1.7,9.1s2.3,4.4,1.7,8.1c-0.6,3.8,2.5,6.3,2.9,11.8
		C215.4,246.7,216.3,249.7,217.7,252.5z"/>
	<path class="st7" d="M217.4,132.3c-0.8-20.4-29.4-24.6-36-5.3c0,0.1-0.1,0.3-0.1,0.4c-4.4,13.1-2.5,46.2-2.5,46.2
		s0.6,22.2,2.6,29.6s8,28.6,8,32s5.4,16.5,7.7,17.4s3.4,8.3,4,9.7s2.3,18.6,2.3,18.6s21.4-1.3,21.8-4.7s-4.7-20.1-4.7-20.1
		s-3.8-6.8-4.3-12.3s-3.5-8-2.9-11.7s-1.7-5.7-1.7-8.1s-1.7-9.1-1.7-9.1s-3.6-2.9-3-6.3s-5.1-10.2-3.6-12.7s1.9-8.5,1.9-8.5
		s1.9-27.3,3.2-34.7s9.1-19.3,9.1-19.3S217.4,132.9,217.4,132.3z"/>
	<path class="st5" d="M182.2,184.7c0.6-0.6,11.4-12.5,14.8-8.2S182.2,184.7,182.2,184.7z"/>
	<path class="st5" d="M183.2,194c0.4-0.4,10.8-0.9,13.4-6.7S183.2,194,183.2,194z"/>
	<g class="st9">
		<path d="M171.4,89.2c0.3,0.3,0.5,0.6,0.6,1c0.4-1.3,0.2-2.7-0.6-3.9c-0.5-0.6-1.3-0.9-1.7-1.5l-0.1-0.2c-0.5,0.9-0.5,2.1,0.1,3
			C170.2,88.3,170.9,88.6,171.4,89.2z"/>
		<path d="M185.9,52.4c0-1.1,0-2.2,0-3.2c-0.2-3.9-0.9-7.8-1.1-11.7c-0.2,4.7,0.8,9.7,1.1,14.6C185.9,52.1,185.9,52.2,185.9,52.4z"
			/>
		<path d="M230.2,99.8c-2.6,3.1-4.7-5.8-5.1-9.3c-0.1,0.6-0.1,1.2-0.1,1.8c0.1,2.2,2.3,13.8,5.2,10.3c2-2.3,2.2-6.3,2.1-10
			C232.1,95.4,231.7,98.1,230.2,99.8z"/>
		<path d="M227.4,68c0.2,1.5,0.4,3,0.4,4.5c0.1-2.5,0-4.9-0.4-7.3c-0.1-1-0.3-1.9-0.4-2.9c-2.7,5.1-5.3,10.6-10.4,12.8
			c-4,1.7-8.7,1-12.8,2.5c-0.8,0.2-1.5,0.7-2.1,1.3c-0.6,0.9-1,2-1,3.1c-1.3,7.5-5.9,14-11.4,19.1c-3.3,3.7-8.1,5.6-13,5.2
			c-3.1,0-6.2-0.2-9.3-0.7c-0.5-0.1-0.9-0.2-1.4-0.4c-0.4,0.5-0.9,1-1.4,1.4c0.2,1.2,1.6,1.6,2.7,1.8c3.1,0.5,6.2,0.7,9.3,0.7
			c4.9,0.4,9.7-1.5,13-5.2c5.5-5.2,10.2-11.7,11.4-19.1c0-1.1,0.4-2.2,1-3.1c0.6-0.6,1.3-1,2.1-1.3c4.1-1.4,8.8-0.7,12.8-2.5
			c5.2-2.3,7.7-7.7,10.4-12.8C227.1,66.1,227.3,67.1,227.4,68z"/>
		<path d="M260.6,43.3c-0.3,1.4-0.7,3.3-2,4.3c-2.1,1.6-2.5-0.2-3.3-1.9c-2.1-4.3-7.5-2.2-11.4-0.1l-2.1,2.7c-1,1.1-1.8,2.4-2.4,3.7
			c-0.4,1.1-0.7,2.2-1,3.3c-0.5,1.9-1.3,3.8-2.1,5.6c-2.9,7.5-4.3,15.5-4.3,23.5c0,0.4,0,0.8,0,1.2c0.2-7.5,1.7-14.8,4.3-21.8
			c0.7-1.9,1.5-3.7,2.1-5.6c0.3-1.1,0.6-2.2,1-3.3c0.6-1.3,1.4-2.6,2.4-3.7l2.1-2.7c3.9-2.1,9.3-4.2,11.4,0.1
			c0.8,1.7,1.2,3.5,3.3,1.9c1.2-1,1.6-2.8,2-4.3c0.9-3.3,1.2-6.8,1.1-10.2C261.5,38.5,261.1,40.9,260.6,43.3z"/>
	</g>
	<path class="st8" d="M286.4,150.9l0.6,0.4c-1.1-0.7-1.3-2.2-0.6-3.3c0,0,0,0,0,0l26.3-38.2c0.7-1.1,2.2-1.3,3.3-0.6l-0.6-0.4
		c1.7,1.2,2.2,3.5,1,5.2c0,0,0,0,0,0l-24.8,35.8C290.5,151.6,288.1,152.1,286.4,150.9C286.4,150.9,286.4,150.9,286.4,150.9z"/>
	<path class="st10" d="M315.5,108.9l0.6,0.4l0,0l-29,42.1l0,0l-0.6-0.4c-0.8-0.5-1-1.6-0.4-2.4l27-39.2
		C313.6,108.5,314.7,108.3,315.5,108.9z"/>
	<path class="st8" d="M312.3,114.7l0.1,0.1c0.1,0.1,0.1,0.2,0,0.2l-2.2,3.2c-0.1,0.1-0.2,0.1-0.2,0l-0.1-0.1c-0.1-0.1-0.1-0.2,0-0.2
		l2.2-3.2C312.1,114.6,312.3,114.6,312.3,114.7z"/>
</g>
<linearGradient id="SVGID_2_" gradientUnits="userSpaceOnUse" x1="493.269" y1="-23.74" x2="493.269" y2="532.62" gradientTransform="matrix(1 0 0 -1 -39.48 827.9)">
	<stop  offset="0" style="stop-color:#808080;stop-opacity:0.25"/>
	<stop  offset="0.54" style="stop-color:#808080;stop-opacity:0.12"/>
	<stop  offset="1" style="stop-color:#808080;stop-opacity:0.1"/>
</linearGradient>
<path class="st11" d="M814.2,759.6l-8-25.5c0,0-6.7-18.1-5.6-27.8s-2.3-20.3-2.3-20.3l6.6-34.3c0,0,0.4-3.7,0.3-8.7
	c0-8.2-1.2-19.7-6.8-22.7c-9.1-4.8-27.7-45.3-31.6-45.3s-16.4-2.6-16.4-7c0-0.2,0-0.3,0-0.5c0,0,0-0.1,0-0.2s-0.1-0.2-0.1-0.3
	l-0.1-0.2l-0.2-0.4l-0.1-0.1c-0.5-0.9-1.1-1.7-1.8-2.4c16.9-3.2,33.8-6.8,50.5-10.9h-0.6l0.6-0.2c-2.2,0-4.4-0.2-6.7-0.5l-0.5,0.1
	c-24.6-3.4-46.8-22.6-52.8-47c-6.7-27,5-55.2,4.5-83c-0.4-17.6-5.6-34.8-15.1-49.6c-1.3-2-2.6-3.9-4.1-5.8
	c18.9-9.2,26.7-31.9,17.6-50.8c-0.9-1.8-1.8-3.4-2.9-5c-0.4-0.6-0.9-1.2-1.3-1.8c9.2,15.2,6.6,34.8-6.2,47.1
	c10.1-18.3,3.4-41.2-14.9-51.3c-18.3-10.1-41.2-3.4-51.3,14.9c-0.1,0.2-0.2,0.4-0.4,0.7c-0.8-0.4-1.6-0.7-2.4-1
	c5.2-14.1,18.2-23.8,33.1-24.7c-0.8,0-1.5-0.1-2.3-0.1c-15.2,0-28.9,9.2-34.8,23.3c-11.3-4.1-23.1-5.9-34.8-2.9
	c-2.2,0.5-4.3,1.3-6.3,2.2l0.5-0.4c-2.9,1.2-5.5,2.9-7.9,5c-3.5,3.2-5.9,7.4-8.9,11.1c-3,3.7-6.6,6.9-10.6,9.6
	c0.3-0.2,0.7-0.4,1-0.5c-13.4,9.5-31.6,12.2-46.9,6.1c-4.3-1.7-8.5-4.1-13-4.7c-3.5-0.4-7.1,0.1-10.3,1.5c0.1-0.1,0.3-0.2,0.4-0.3
	c-4.2,1.7-7.9,4.5-10.8,8.1c-5,6.2-7.5,14-9.3,21.7c-1.3,5.5-2,11.1-2,16.7c0.1,7.2,1.7,14.2,6,19.8c6.7,8.7,15.8,11,25.3,12.6
	c-0.3,1-0.5,1.9-0.8,2.9c-11.4,44.9,14.9,90.7,59.4,103.7l1.8,3.1l0.6,0.1c4.4,7.5,9.3,15.9,13.8,24c0.2,0.4,0.5,0.9,0.7,1.3
	l-8.5,4.4l0,0c-2.2,1.2-7.8,4.2-10.8,7.1c-0.9,0.8-1.6,1.7-2,2.8c-1.3,4.4-8.2,15.7-13,18.7s-8.7,17.8-8.2,25.7s-2.6,7-10.4,7.4
	s0,11.8,0,11.8l0.2,0.8c-0.4,0.6-0.8,1.3-1.2,2c-2,3.1-4.6,6.5-6.5,6.3c-3.5-0.3-5.6,8.2-5.4,9.5s-6.1,11.8-8.4,12.8
	s-12.5,3.2-9.7,12.9L510,693.9l-10,9.6c0,0-14.3-8.1-37.4,17c2.6-0.2,5.2,0,7.7,0.7l-0.7,0.3c-6.1,2.9-16.7,7.8-24.5,11l-41.6,1.3
	v-31c0,0-3.7-8.7-8,0l-1.1,31.3L304,737l16.9-18l0,0l0.2-0.2c3.7-3.9,5-9.5,3.3-14.7L253.8,482l0,0l-0.5-1.6
	c-1.4-4.5-5.3-7.7-10-8.4l-98.2-13.3l-0.7-0.1l-9,2.5c-4.7,1.3-7.5,6.1-6.2,10.9c0,0,0,0.1,0,0.1c2.3,8,6.1,21.1,11,37.5h-13.6
	l10.4,89.7l6.3,34.5c1.6,8.8,3.5,17.5,5.7,26.2c5.2,21,15.5,65.8,15.8,91.8l-76,82.9v16.8h485.5c0,0.1,0,0.1,0.1,0.2H811
	c0,0-2.6-4.6,3-11.1s2.8-32.4,2.8-32.4s-3.1-4.1,0.7-13.3S814.2,759.6,814.2,759.6z M211,740l-12.9,0.4l-12-78.1
	C195,690.9,203.7,718,211,740z M543.2,787.5l-8.4-17.1c1.9,0.1,3.8-0.4,5.4-1.5c5.4-3.9,8.7-13.1,8.7-13.1l14.5-17.3l1.2-1.4
	c2.9,8.2,6.4,14.7,9.2,17.8c6.9,7.8,7.8,30.5,9.9,38.7s0.5,4.8,0,9.6c-0.1,1.2,0,2.3,0.3,3.5C574.5,796.5,560.9,787.2,543.2,787.5z"
	/>
<polygon class="st12" points="93.8,835 179.2,742.5 518.2,731.6 577.4,851.6 93.8,851.6 "/>
<polygon class="st13" points="93.8,835 179.2,742.5 518.2,731.6 577.4,851.6 93.8,851.6 "/>
<path class="st12" d="M535.4,827.3v3.2c0,3.4-2.8,6.2-6.2,6.2H347c-3.5,0,0-6.9,0-6.9l-2.1-45.1c-0.2-3.5,2.2-6.7,5.6-7.6
	c10.1-2.6,17.1,1.5,17.1,1.5l112.9-2.9c2.3-0.1,4.7,0,7,0.3c8.3,1.1,15.8,5.5,20.7,12.3l25.9,35.2
	C535,824.6,535.4,825.9,535.4,827.3z"/>
<path class="st5" d="M535.4,830.5L535.4,830.5c0,3.4-2.8,6.2-6.2,6.2H347c-3.5,0,0-6.9,0-6.9s10.1-4.9,25-4l133-2.9
	c0,0,15.7,0.4,24.9,1.4C533,824.6,535.4,827.3,535.4,830.5z"/>
<polygon class="st14" points="483.7,783.5 369.4,783.5 372.5,818.3 505,816 "/>
<path class="st12" d="M289.8,808V820L170,824.9c0,0-27.4-1.9-30.8-18.7c-0.3-1.8-0.2-3.6,0.1-5.3c1.2-7.1,7.3-19.5,34.1-25.2l33-3.4
	H280C280,772.3,289.5,781.8,289.8,808z"/>
<path class="st5" d="M289.8,808.4V820L170,824.9c0,0-27.4-1.9-30.8-18.7c-0.3-1.8-0.2-3.6,0.1-5.3c0,0,16.6,15.7,39,13.4l105.4-4.6
	C285.8,809.3,287.8,808.9,289.8,808.4z"/>
<ellipse transform="matrix(0.9987 -5.146447e-02 5.146447e-02 0.9987 -40.3889 11.2277)" class="st5" cx="197.8" cy="789.9" rx="36.8" ry="6.3"/>
<path class="st12" d="M209.5,786.9l-19.4,9.6l-20.6-4.9l-0.1-33.6c1.3-24.5-10-73.6-15.6-95.9c-2.2-8.6-4-17.3-5.6-26l-6.3-34.2
	l-10.3-88.7h24.6l14.4,20.7L209.5,786.9z"/>
<path class="st12" d="M209.5,786.9l-19.4,9.6l-12.4-71.8c0.2-12.2-15.1-70.3-16.1-72.7C149.5,622.9,139,513.3,139,513.3h17.1
	l14.4,20.6L209.5,786.9z"/>
<path class="st15" d="M209.5,786.9l-19.4,9.6l-12.4-71.8c0.2-12.2-15.1-70.3-16.1-72.7C149.5,622.9,139,513.3,139,513.3h17.1
	l14.4,20.6L209.5,786.9z"/>
<path class="st12" d="M325,720.3l-66,69.5l-7.7,0.5l-9.4,0.7c-4.5,0.3-8.7-2.2-10.5-6.3c-20-45-83.9-262.6-97.4-308.7
	c-1.4-4.6,1.3-9.5,5.9-10.8c0.1,0,0.1,0,0.2-0.1l9-2.4l0.7,0.1l96.2,12.9c5.6,0.8,10.3,4.7,12,10.1l70.4,219.9
	C330,710.9,328.7,716.4,325,720.3z"/>
<path class="st5" d="M325,720.3l-66,69.5l-7.7,0.5l-9.4,0.7c-4.5,0.3-8.7-2.2-10.5-6.3c-20-45-83.9-262.6-97.4-308.7
	c-1.4-4.6,1.3-9.5,5.9-10.8c0.1,0,0.1,0,0.2-0.1l9-2.4l0.7,0.1l96.2,12.9c5.6,0.8,10.3,4.7,12,10.1l70.4,219.9
	C330,710.9,328.7,716.4,325,720.3z"/>
<path class="st12" d="M324.8,720.6L259,789.9l-7.7,0.5l-98.7-316c-1.7-3.6-2.6-7.6-2.8-11.5l97.8,13.1c4.6,0.6,8.5,3.9,9.9,8.3
	l70.8,221.1C330,710.8,328.6,716.5,324.8,720.6z"/>
<path class="st14" d="M320,708.9c-0.7,1.2-1.6,2.3-2.7,3.3l-64.7,60.2l-88.3-292.8l84.8,8.4c6,0.6,11.1,4.8,12.8,10.5L321.5,697
	C322.7,701,322.1,705.3,320,708.9z"/>
<path class="st5" d="M320,708.9L249.1,488c6,0.6,11.1,4.8,12.8,10.5L321.5,697C322.7,701,322.1,705.3,320,708.9z"/>
<circle class="st16" cx="700.3" cy="344.1" r="37.5"/>
<path class="st16" d="M662.3,338.6c0-19.9,15.5-36.3,35.3-37.5c-0.7,0-1.5-0.1-2.2-0.1c-20.7-0.3-37.8,16.2-38.2,36.9
	s16.2,37.8,36.9,38.2c0.4,0,0.8,0,1.2,0c0.8,0,1.5,0,2.2-0.1C677.8,374.9,662.3,358.4,662.3,338.6z"/>
<path class="st5" d="M667.2,344.1c0-19.9,15.5-36.3,35.3-37.5c-0.7,0-1.5-0.1-2.2-0.1c-20.7,0.3-37.3,17.4-36.9,38.2
	c0.3,20.3,16.7,36.6,36.9,36.9c0.8,0,1.5,0,2.2-0.1C682.7,380.5,667.2,364,667.2,344.1z"/>
<path class="st17" d="M507,765.2c-3.5,1.9-7.1,3.5-10.8,4.9c-9.7,3.8-24.4,8.2-38.1,6.5c-23-2.8-36.8,4.7-36.8,4.7l-5.2-38.3
	c0,0,17-5,23.9-6.3c5.2-1,23.9-9.6,32.8-13.8c3-1.4,4.9-2.3,4.9-2.3h17.2L507,765.2z"/>
<path class="st5" d="M507,765.2c-3.5,1.9-7.1,3.5-10.8,4.9c-1.2-34.2-14.3-44.3-23.3-47.2c3-1.4,4.9-2.3,4.9-2.3h17.2L507,765.2z"/>
<path class="st18" d="M570.8,650.6v84l-4.5,5.3L551.8,757c0,0-3.2,9-8.6,12.9s-17.7-1.3-17.7-1.3l-3.5,5.6c0,0-7.8,1.5-11.4,0
	c-3.7-1.5-12.7,4.3-12.7,4.3c1.3-61.6-32.1-56.7-32.1-56.7c23.1-24.8,37.3-16.8,37.3-16.8l9.9-9.5l12.3-12.4
	c-2.8-9.6,7.3-11.7,9.7-12.8s8.6-11.4,8.4-12.7s1.9-9.7,5.4-9.4c1.9,0.2,4.5-3.2,6.5-6.2c1.6-2.4,2.7-4.7,2.7-4.7L570.8,650.6z"/>
<path class="st18" d="M600.6,566.6l25.4-13l-1.4,15.2l5,15.3c0,0-4.6,11.8-5.2,13.1s-11.5,28.3-11.5,28.3l-8.8-11.1L600.6,566.6z"/>
<polyline class="st5" points="604.2,614.5 600.6,566.6 626,553.6 "/>
<path class="st17" d="M709.8,552.3c0,0-8.4,12.1-20,27.6c-26.9,36-70.7,90-64,50.8c0.2-1.3,0.4-2.6,0.5-3.8
	c-1.6,1.1-5.4,0.1-9.5-1.8l-0.3-0.1c-2-1-4-2.1-5.8-3.4c-0.2-0.1-0.4-0.3-0.6-0.4c-4.5-3.2-8.2-6.9-8-9.4
	c3.2-56.2,16.3-29.4,20-23.2c0.2,0.4,0.5,0.8,0.8,1.2c-0.2-0.4-0.3-0.9-0.5-1.4c-2.6-6.3-7.5-15.8-13.1-25.9v-0.1l-0.8-1.3
	c-4.7-8.3-9.8-17.1-14.3-24.7l-1.2-2.1c-7.2-12.1-12.8-21.1-12.8-21.1s32.7-29.9,60.3-48.1c23-15.2,42.5-22.2,36.3,3.3
	c-4,16.4-2.8,30.4,0.9,42c0.1,0.4,0.3,0.9,0.4,1.3c0.7,2.2,1.6,4.4,2.6,6.5c1.3,2.9,2.8,5.8,4.5,8.5
	C691.3,536.9,699.7,545.6,709.8,552.3z"/>
<path class="st15" d="M658.9,506.9c-15.5,16.9-18.8,33-43.5,33c-7.2,0-14.3-0.9-21.3-2.7c-7.8-13.1-14-23.2-14-23.2
	s110.2-100.8,96.5-44.8C672.4,486.1,654.9,495,658.9,506.9z"/>
<path class="st17" d="M700.3,452.3c0,46.9-38,84.9-84.9,84.9c-46.9,0-84.9-38-84.9-84.9s38-84.9,84.9-84.9c0,0,0,0,0,0
	c46.7-0.2,84.7,37.5,84.9,84.1C700.3,451.8,700.3,452.1,700.3,452.3z"/>
<path class="st5" d="M613.4,599.3c0,0,1.5,24.1,16.8,22.2s3.7,51.3,3.7,51.3l-17,15.5l-18.3,5.6c0,0-16.2-4.7-15.9-5.6
	s6.5-51.3,6.5-51.3l9.5-26.9L613.4,599.3z"/>
<path class="st12" d="M613.4,601c0,0,1.5,24.1,16.8,22.2s3.7,51.3,3.7,51.3l-17,15.5l-18.3,5.6c0,0-16.2-4.7-15.9-5.6
	s6.5-51.3,6.5-51.3l9.5-26.9L613.4,601z"/>
<path class="st5" d="M570.8,650.6v84l-4.5,5.3c-4.7-12.3-8.2-29.1-6-44.1c2.8-19.9-2.8-45.5-4.9-53.7c1.6-2.4,2.7-4.7,2.7-4.7
	L570.8,650.6z"/>
<path class="st5" d="M615.4,603.6c-0.5,4.7-1.8,9.4-3.7,13.7c-0.6,1.3-1.1,2.6-1.7,3.8c-4.5-3.2-8.2-6.9-8-9.4
	c3.2-56.2,16.3-29.4,20-23.2C620.2,589.9,616.2,593.9,615.4,603.6z"/>
<path class="st5" d="M622.3,588.3c-2.7-6.6-8-16.7-13.9-27.3l0.8-0.4l13.7,27.4C622.7,588.1,622.5,588.2,622.3,588.3z"/>
<path class="st5" d="M709.8,552.3c0,0-93.5,134.5-84,78.4c0.2-1.3,0.4-2.6,0.5-3.8c-1.7,1.1-5.6,0.1-9.8-1.9c0.6-3.7,1-6.3,1-6.3
	l10.3-29.3c0,0,6-23.3,5.2-28l0.3-0.2l51.5-34.5h0l0,0C691.1,536.9,699.7,545.7,709.8,552.3z"/>
<path class="st18" d="M806.7,654l-7.3,37.9l-22,159.9H586.5c0,0,3.4-28,3.4-32.3s-3.9-10.8-3.4-15.5s2.1-1.3,0-9.5s-3-30.6-9.9-38.3
	s-18.1-36.2-14.7-60.3s-5.6-56.5-5.6-56.5s-7.8-11.2,0-11.6s10.8,0.4,10.3-7.3s3.4-22.4,8.2-25.4s11.6-14.2,12.9-18.5
	c0.4-1.1,1.1-2,2-2.8c3.9-3.7,11.8-7.5,11.8-7.5l7.5-3.8v0.1l13.7,27.3c0,0-6.4,3.1-7.5,15.6c-0.5,4.7-1.8,9.4-3.7,13.7
	c-0.4,0.9-0.7,1.7-1.1,2.5c-1.1,2.4-2.2,4.6-3.2,6.3l0,0c-1.4,2.5-2.4,4.1-2.4,4.1s-0.4,2.9-0.9,7l0,0c-1.2,8.4-3.1,21.7-4.2,24.8
	c-1,2.8-3,7.7-4.1,12c-0.7,2.7-1.1,5.2-0.7,6.9c0,0.1,0.1,0.3,0.1,0.4c1.3,4,7.8-13.2,7.8-13.2s4.7-14.7,6.9-14.7
	c1.7,0,5.4-20.7,7-30.2c0.5-2.8,0.8-4.7,0.8-4.7l10.3-29.3c0,0,1.4-5.5,2.8-11.8c1.4-6.5,2.8-13.8,2.4-16.3l0.3-0.2l51.5-34.5h0
	l0.8-0.5h-0.1c-0.4,0-1.4-0.6-3.4-5.3c-0.5-1.2-1.1-2.6-1.7-4.4c0,0,16.5-6.6,22.3-1.8c0.4,0.3,0.7,0.7,1,1.1
	c0.2,0.2,0.3,0.5,0.4,0.7c3.9,8,5.6,14,9.5,19.2c0.4,0.6,0.9,1.1,1.4,1.6c4.7,4.9,14,10.7,12.4,12.2c-1.7,1.7,12.9,9,12.9,9
	s8.6,4.9,11.3,9c0.5,0.6,0.7,1.4,0.8,2.2c0,4.3,12.5,6.9,16.4,6.9s22.4,40.1,31.5,44.8S806.7,654,806.7,654z"/>
<g class="st9">
	<path d="M613.4,589.7c0,0-6.4,3.1-7.5,15.6c-0.5,4.7-1.8,9.4-3.7,13.7c-1.3,3-2.7,6-4.3,8.8l0,0c-1.4,2.5-2.4,4.1-2.4,4.1
		s-0.4,2.9-0.9,7l0,0c-1.1,8.5-3.1,21.7-4.3,24.9c-1,2.8-3,7.7-4.1,12c-0.7,2.7-1.1,5.2-0.7,6.9c0,0.1,0.1,0.3,0.1,0.4
		c1.3,4,7.8-13.2,7.8-13.2s4.7-14.7,6.9-14.7c0.6,0,1.5-2.9,2.5-6.9c0.5-3.3,1-6.5,1.3-9.3l0,0c0.6-4.1,0.9-7,0.9-7s0.6-0.9,1.5-2.4
		c0.9-5.3,1.6-9.3,1.6-9.3l10.3-29.3c0,0,0.8-2.9,1.7-6.9l-11-21.9l-7.5,3.8l0,0L613.4,589.7z"/>
	<path d="M800.2,623c-9-4.7-27.6-44.8-31.5-44.8s-16.4-2.6-16.4-6.9s-12.1-11.2-12.1-11.2s-14.7-7.3-12.9-9
		c1.5-1.6-7.7-7.3-12.4-12.2c-0.5-0.5-0.9-1-1.4-1.6c-3.9-5.2-5.6-11.2-9.5-19.2c-0.1-0.3-0.3-0.5-0.4-0.7c-0.3-0.4-0.6-0.7-1-1.1
		c-2.6-2.2-7.4-2-11.9-1.2c0.9,0.3,1.7,0.7,2.4,1.2c0.4,0.3,0.7,0.7,1,1.1c0.2,0.2,0.3,0.5,0.4,0.7c3.9,8,5.6,14,9.5,19.2
		c0.4,0.5,0.9,1,1.4,1.5c4.7,4.9,14,10.7,12.4,12.2c-1.7,1.7,12.9,9,12.9,9s12.1,6.9,12.1,11.2s12.5,6.9,16.4,6.9
		s22.4,40.1,31.5,44.8s6.5,31,6.5,31l-7.3,38l-22,159.9h9.5l22-159.9l7.3-37.9C806.7,654,809.3,627.7,800.2,623z"/>
</g>
<path class="st17" d="M423.9,743.8c0,0-54.8-15.9-58.7,8.5s22.4,38.3,39.2,37.9s24.1-16.4,24.1-16.4L423.9,743.8z"/>
<path class="st17" d="M698.8,818.6c0,0-12.3,8.8-38.3,8.8S604,833,604,833s-38.8-91.3-116.6-13.1c0,0-14,18.1,58.6,20
	c0,0,25.6-0.9,31.2,11.8h145l19.8-14.8L698.8,818.6z"/>
<path class="st12" d="M407,704.4c0,0-3.7-8.6-8,0l-2.4,66.8l5.2,15.7l5.2-14L407,704.4z"/>
<path class="st5" d="M703.7,517.3c-7.5,2.6-15.8,8.6-18.2,10.4c-0.5,0-2-1-5.1-9.7C680.4,518.1,699,510.6,703.7,517.3z"/>
<path class="st18" d="M622.9,589.7c0,0-6.4,3.1-7.5,15.6c-0.5,4.7-1.8,9.4-3.7,13.7l-4.2,8.9l0,0l-3.3,11.1l0,0l0.3,22.7l-8.8,14.2
	l-0.7,6.9l-2.3,21.2l-11.6-5.6c0,0,4.8-34.2,8.4-41.2s8.4-43.6,8.4-43.6s-0.2-13.5,1.5-15.8s-3-1.9-3.5-6.9
	c-0.3-2.9-3.5-11.1-6.2-17.3c3.9-3.7,11.8-7.5,11.8-7.5l7.5-3.8L622.9,589.7z"/>
<path class="st5" d="M622.9,589.7c0,0-6.4,3.1-7.5,15.6c-0.5,4.7-1.8,9.4-3.7,13.7l-4.2,8.9l0,0l-3.3,11.1l0,0l0.3,22.7l-8.8,14.2
	l-0.7,6.9l-2.3,21.2l-11.6-5.6c0,0,4.8-34.2,8.4-41.2s8.4-43.6,8.4-43.6s-0.2-13.5,1.5-15.8s-3-1.9-3.5-6.9
	c-0.3-2.9-3.5-11.1-6.2-17.3c3.9-3.7,11.8-7.5,11.8-7.5l7.5-3.8L622.9,589.7z"/>
<path class="st5" d="M715,540.5c-9.6,7.9-35.5,30.2-38.4,45.3c-3.7,18.7-14.7,16.9-14.7,16.9c-13.7-29.8-23.2-37.1-28.6-38.1
	l51.5-34.6c0,0,0,0,0,0l0.8-0.5h-0.1c-0.4,0-1.4-0.6-3.4-5.3l20.6-6.2c0.4,0.3,0.7,0.7,1,1.1c0.2,0.2,0.3,0.5,0.4,0.7
	c3.9,8,5.6,14,9.5,19.2C714.1,539.5,714.5,540,715,540.5z"/>
<path class="st18" d="M715,538.8c-9.6,7.9-35.5,30.2-38.4,45.3c-3.7,18.7-14.7,16.9-14.7,16.9c-13.7-29.8-23.2-37.1-28.6-38.1
	l51.5-34.5h0l0.8-0.5h-0.1c-0.4,0-1.4-0.6-3.4-5.3l20.6-6.2c0.4,0.3,0.7,0.7,1,1.1c0.2,0.2,0.3,0.5,0.4,0.7c3.9,8,5.6,14,9.5,19.2
	C714.1,537.8,714.5,538.3,715,538.8z"/>
<path class="st5" d="M656.8,689.8c0.6-0.2,34.2-19.2,30.4-4.8S656.8,689.8,656.8,689.8z"/>
<path class="st5" d="M511.5,708c0,0,17.7,27.5,23.9,26.6S511.5,708,511.5,708z"/>
<path class="st5" d="M533.5,697.8c0,0,1.1,21.3,10.3,22.8S533.5,697.8,533.5,697.8z"/>
<path class="st5" d="M631.5,766.3c0,0,21.9,36.5,17.7,49.1L631.5,766.3z"/>
<path class="st5" d="M657,770.6c0,0,29.7,39,24.5,42.2S657,770.6,657,770.6z"/>
<path class="st5" d="M590.2,708c0,0-3,27.7,8.4,35.8L590.2,708z"/>
<path class="st5" d="M723.3,584.6c0,0-50.8,39.4-42.7,80.4s16,44,16,44s3,16.4,8.6,23.3s4.7,11.4,4.7,11.4s5.2-2.4,6.9,9.5
	s10.8,20.3,10.8,20.3s3,9.5-4.7,14.7s-6,10.8-6,10.8l-31.5,18.3l35,34.7H811c0,0-2.6-4.5,3-11s2.8-32.1,2.8-32.1s-3.1-4.1,0.7-13.2
	s-3.3-34.9-3.3-34.9l-8-25.2c0,0-6.7-17.9-5.6-27.5s-2.2-20.1-2.2-20.1l-17.4-54.8C781.1,633.1,781.9,578.4,723.3,584.6z"/>
<path class="st18" d="M725.1,584.6c0,0-50.8,39.4-42.7,80.4s15.9,44,15.9,44s3,16.4,8.6,23.3s4.7,11.4,4.7,11.4s5.2-2.4,6.9,9.5
	s10.8,20.3,10.8,20.3s3,9.5-4.7,14.7s-6,10.8-6,10.8l-31.5,18.3l35.1,34.7h90.5c0,0-2.6-4.5,3-11s2.8-32.1,2.8-32.1
	s-3.1-4.1,0.7-13.2s-3.3-34.9-3.3-34.9l-8-25.2c0,0-6.7-17.9-5.6-27.5s-2.2-20.1-2.2-20.1l-17.4-54.8
	C782.8,633.1,783.7,578.4,725.1,584.6z"/>
<path class="st5" d="M742.1,612.4c0,0,36.2,12.3,45.9,18.3S773.7,606.8,742.1,612.4z"/>
<path class="st5" d="M761,798.8c0,0,51.5,6.5,48.5,16.6S761,798.8,761,798.8z"/>
<path class="st5" d="M750.9,809.8c0,0,37.7,12.1,31,22S750.9,809.8,750.9,809.8z"/>
<path class="st5" d="M751.6,569.1c-20.5,4-41.2,7.4-61.9,10.8l-5.4,0.9c-11.4,1.9-22.8,3.8-34.3,3.7c-5.6,0-11.4-0.6-16.4-3.2
	c-1.1-0.6-2.1-1.2-3-2c-3.5-2.8-6-6.9-5.9-11.3c0.1-8.1,7.7-13.7,14.3-18.3c9.6-6.8,19.1-15.5,22.9-26.4c0.7-2,1.2-4.2,1.5-6.3
	c1.1-9.3-2.3-18.4-5.9-27c-3.9-9.4-9.3-19.4-17.2-25.1c-3.2-2.3-6.9-3.8-10.8-4.4c-12.1-1.6-23.5,7-35.7,6.5
	c-9.9-0.4-18.3-6.8-24.2-14.3c-4.3-5.4-7.1-12.7-13.6-16c-7.1-3.5-15.1-4.3-22.9-5.5c11.6-45.4,57.8-72.9,103.2-61.3
	c45.4,11.6,72.9,57.8,61.3,103.2c-3.5,13.8-10.5,26.6-20.2,37c0.1,0.4,0.3,0.9,0.4,1.3c0.7,2.2,1.6,4.4,2.6,6.5
	c0,0,16.5-6.6,22.3-1.8c0.4,0.3,0.7,0.7,1,1.1c0.2,0.2,0.3,0.5,0.4,0.7c3.9,8,5.6,14,9.5,19.2c0.4,0.6,0.9,1.1,1.4,1.6
	c4.7,4.9,14,10.7,12.4,12.2c-1.7,1.7,12.9,9,12.9,9S748.9,565,751.6,569.1z"/>
<path class="st16" d="M508.7,416.1c-7.7-9.9-6.8-23.8-4-36c1.8-7.7,4.3-15.4,9.3-21.5c5-6.1,12.8-10.4,20.6-9.3
	c4.6,0.6,8.7,3,13,4.6c19.3,7.6,43.2,1.3,56.2-14.9c2.9-3.7,5.4-7.8,8.8-11c3.9-3.4,8.6-5.7,13.6-6.9c21.7-5.5,44.1,5.3,62.7,17.8
	c15.9,10.7,30.9,23.1,41.3,39.2c9.5,14.6,14.7,31.6,15,49.1c0.5,27.6-11.1,55.4-4.5,82.2c6.6,26.5,32.4,46.8,59.7,47
	c-37.4,9.2-75.5,15.5-113.5,21.7c-11.4,1.9-22.8,3.8-34.3,3.7c-5.6,0-11.4-0.6-16.4-3.2s-9-7.7-9-13.3c0.1-8.1,7.7-13.7,14.3-18.3
	c11.4-8.1,22.7-18.8,24.3-32.7c1.1-9.3-2.3-18.4-5.9-27c-5.5-13.1-13.9-27.6-27.9-29.5c-12.1-1.6-23.5,7-35.7,6.5
	c-9.9-0.4-18.3-6.8-24.2-14.3c-4.3-5.4-7.1-12.7-13.6-16C542.5,426.3,521.2,432.3,508.7,416.1z"/>
<path class="st16" d="M728.8,365.8c16.3-11.3,21-33.4,10.7-50.4c0.5,0.6,0.9,1.2,1.3,1.8c12.1,16.9,8.2,40.3-8.6,52.4
	c-16.9,12.1-40.3,8.2-52.4-8.6c-0.2-0.3-0.4-0.6-0.7-0.9c-0.4-0.6-0.8-1.3-1.2-1.9C690.1,373.7,712.4,377.1,728.8,365.8z"/>
<g class="st9">
	<path d="M609.8,335.4c2.9-3.7,5.4-7.8,8.8-11c0.6-0.5,1.2-1,1.8-1.5c-2.9,1.2-5.5,2.8-7.8,4.9c-3.5,3.2-5.9,7.3-8.8,11
		c-3,3.7-6.5,6.9-10.5,9.5C599.6,345.3,605.3,340.9,609.8,335.4z"/>
	<path d="M693,574.6c-11.4,1.9-22.8,3.8-34.3,3.7c-5.6,0-11.4-0.6-16.4-3.2s-9-7.7-9-13.3c0.1-8.1,7.7-13.6,14.3-18.3
		c11.4-8.1,22.7-18.8,24.3-32.7c1.1-9.2-2.3-18.4-5.9-27c-5.5-13.1-13.8-27.6-27.9-29.5c-12.1-1.6-23.5,7-35.7,6.5
		c-9.9-0.4-18.3-6.8-24.2-14.2c-4.3-5.4-7.1-12.7-13.6-16c-16.2-8-37.4-2-50-18.2c-7.7-9.9-6.8-23.9-4-36c1.8-7.7,4.3-15.4,9.3-21.5
		c1.4-1.7,3-3.2,4.7-4.6c-4.2,1.7-7.9,4.5-10.8,8c-5,6.1-7.5,13.8-9.3,21.5c-2.8,12.2-3.7,26.1,4,36c12.6,16.2,33.8,10.2,50,18.2
		c6.5,3.2,9.3,10.5,13.6,16c6,7.5,14.4,13.8,24.2,14.2c12.2,0.5,23.6-8.1,35.7-6.5c14.1,1.9,22.5,16.4,27.9,29.5
		c3.6,8.6,7,17.7,5.9,27c-1.7,13.9-12.9,24.6-24.3,32.7c-6.6,4.7-14.2,10.3-14.3,18.3c0,5.6,4,10.7,9,13.3s10.8,3.1,16.4,3.2
		c11.5,0.1,23-1.8,34.3-3.7c38-6.3,76.1-12.5,113.5-21.7c-2.2,0-4.4-0.2-6.6-0.5C760.5,563.5,726.7,569,693,574.6z"/>
</g>
<ellipse class="st17" cx="410.7" cy="755.5" rx="16.4" ry="9"/>
<path class="st19" d="M681.7,89.1c-18.3-4.9-36.7-9.8-55.6-10.5s-38.5,2.9-53.9,13.8c-7.7,5.5-14.1,12.5-20.6,19.4
	c-34.5,36.5-72.9,69-114.7,96.9c-16.8,11.2-34.8,21.9-54.8,24.7c-20,2.8-42.7-4.1-53-21.5l6.2-3.2"/>
<path class="st12" d="M842.8,62.8H713.6c-5.1,0-9.2-4.1-9.2-9.2V35.2c0-5.1,4.1-9.2,9.2-9.2c0,0,0,0,0,0h129.2
	c5.1,0,9.2,4.1,9.2,9.2v18.5C852,58.7,847.9,62.8,842.8,62.8z M829,37.5c-3.8,0-6.9,3.1-6.9,6.9c0,3.8,3.1,6.9,6.9,6.9
	c3.8,0,6.9-3.1,6.9-6.9C835.9,40.6,832.8,37.5,829,37.5C829,37.5,829,37.5,829,37.5z M810.5,37.5c-3.8,0-6.9,3.1-6.9,6.9
	c0,3.8,3.1,6.9,6.9,6.9c3.8,0,6.9-3.1,6.9-6.9c0,0,0,0,0,0C817.4,40.6,814.3,37.5,810.5,37.5L810.5,37.5z M842.8,109H713.6
	c-5.1,0-9.2-4.1-9.2-9.2V81.3c0-5.1,4.1-9.2,9.2-9.2h129.2c5.1,0,9.2,4.1,9.2,9.2v18.5C852,104.9,847.9,109,842.8,109z M829,83.6
	c-3.8,0-6.9,3.1-6.9,6.9s3.1,6.9,6.9,6.9s6.9-3.1,6.9-6.9c0,0,0,0,0,0C835.9,86.7,832.8,83.6,829,83.6C829,83.6,829,83.6,829,83.6z
	 M810.5,83.6c-3.8,0-6.9,3.1-6.9,6.9s3.1,6.9,6.9,6.9s6.9-3.1,6.9-6.9c0,0,0,0,0,0C817.4,86.7,814.3,83.6,810.5,83.6L810.5,83.6z
	 M842.8,155.1H713.6c-5.1,0-9.2-4.1-9.2-9.2v-18.5c0-5.1,4.1-9.2,9.2-9.2h129.2c5.1,0,9.2,4.1,9.2,9.2v18.4
	C852.1,151,847.9,155.1,842.8,155.1C842.8,155.1,842.8,155.1,842.8,155.1z M829,129.8c-3.8,0-6.9,3.1-6.9,6.9s3.1,6.9,6.9,6.9
	s6.9-3.1,6.9-6.9v0C835.9,132.9,832.8,129.8,829,129.8C829,129.8,829,129.8,829,129.8z M810.5,129.8c-3.8,0-6.9,3.1-6.9,6.9
	c0,3.8,3.1,6.9,6.9,6.9s6.9-3.1,6.9-6.9c0,0,0,0,0,0C817.4,132.9,814.3,129.8,810.5,129.8L810.5,129.8z"/>
<path class="st19" d="M863.7,87.6c8.3-0.9,17.2-0.6,24.3,3.7c7.5,4.6,11.9,13.3,13.3,22s0.4,17.6-0.6,26.4l-5.6,47.4
	c-0.8,6.6-1.5,13.5,0.6,19.9s8.1,11.9,14.8,11.3"/>
<path class="st19" d="M322.1,489.6c21.4,0.5,45.4,0,60.2-15.4c11.2-11.7,13.8-28.9,17.6-44.7c6.8-28.5,19.2-55.9,38-78.3
	s44.2-39.8,72.6-46.7c22.8-5.6,46.9-4.6,69.8-9.6s46.5-18.7,52.9-41.3"/>
<path class="st20" d="M680,203.9l-57.6,21c-0.6,0.2-0.9,0.9-0.7,1.5c0.1,0.2,0.2,0.4,0.4,0.5l8.6,4.8c0.5,0.3,0.8,0.8,1,1.3
	l4.9,15.6c0,0.7,1.2,1,1.3,0.4l0.7-12.2c0.2-0.9,0.7-1.7,1.3-2.3l31.7-23c0.2-0.1,0.4-0.2,0.6-0.1c0.3,0.1,0.5,0.5,0.4,0.8
	c0,0.1-0.1,0.2-0.2,0.2l-28.2,25.7c-0.6,0.6-1.1,1.4-1.3,2.3l-3,10.2c0,0.9,0.6,1.4,1.3,0.6l6-5.3c0.4-0.4,1.1-0.4,1.5,0
	c0,0,0,0,0,0l11.8,11.6c0.4,0.4,1.1,0.4,1.5,0c0.1-0.1,0.2-0.3,0.3-0.4l18.7-51.7c0.2-0.6,0-1.2-0.6-1.4
	C680.4,203.9,680.2,203.9,680,203.9L680,203.9z"/>
<g>
	<path class="st21" d="M972.8,468.7c0,0-2,2.2-5.6,3.9c-4,1.9-9.8,3.3-9.6,3.9h19.5c0,0,1.7-4.2-0.3-7.7H972.8z"/>
	<path class="st22" d="M946.3,359.3c0,0,22.5,54.1,26.5,109.4c0,0,1.4,0,4.1,0c1.1-30.5,4.2-72.6-0.9-90.3
		c-11-19.8-19.6-24.3-19.6-24.3S943.8,353,946.3,359.3z"/>
	<g>
		<path class="st22" d="M968.9,472.6c0.9,1.3,8-3.9,8-3.9c-1.5-0.7-2.7-0.8-4.1,0c0,0-1.4,1.3-4,3
			C968.7,472,968.8,472.3,968.9,472.6z"/>
	</g>
	<ellipse class="st23" cx="941" cy="478.5" rx="180" ry="2.6"/>
	<path class="st21" d="M992.5,217.7c0,0-4.4,2.6-5.9,9.8c-0.2,3.5-0.3,5.7,0.5,10.3l3-3.5L992.5,217.7z"/>
	<path class="st22" d="M942.1,230.3c0,0,2.3-5.6,1.4-6.8c-0.9-1.3-2.1,1.1-2.1,1.1L942.1,230.3z"/>
	<path class="st22" d="M931.7,226.1c0,0,5.1,4.5,8,4.8c2.9,0.2,2.4-0.6,2.4-0.6s0.3-7.7-1-10.5L931.7,226.1z"/>
	<path class="st22" d="M974.1,285.5c0,0-3-9.7-8.6-20.5c-5.6-10.8-9.3-12.9-23.4-34.7c-1.1,0.2-2.4,0.6-2.4,0.6s13.2,42.4,28.4,60.1
		L974.1,285.5z"/>
	<path class="st24" d="M935.9,227.2c0,0,2.8-0.2,3.9,0.5c0,0,1.1-3.3,2.5-4.2C942.2,223.5,936.2,226.1,935.9,227.2z"/>
	<path class="st25" d="M983,248.7c-4.4,9.3-17.7,40.3-15,42.3c2.8,2,16.1-15.1,27-32c10.3-15.9,12.1-27.9,9-31.2
		C1001,224.6,992.4,229.1,983,248.7z"/>
	<path class="st25" d="M974.1,285.5c0,0-3-9.7-8.6-20.5l-9.7,6.2c3.7,7.6,7.9,14.7,12.3,19.8L974.1,285.5z"/>
	<path class="st21" d="M965.1,262.3l2.3,3.8c0,0-3.6,4.5-4.7,5.1c-0.9,0.5-6.8,3.3-6.8,3.3l-3-5.9c0,0,6.1-1.8,7.5-2.7
		C960.9,265.6,965.1,262.3,965.1,262.3z"/>
	<path class="st22" d="M986.4,206.6c0,0-0.3,8.7,6.6,14.2l-4.4,6.1c0,0-3.4-7.4-11.2-2.1L986.4,206.6z"/>
	<path class="st26" d="M949.1,178c0,0,18.9-16.7,32.8-9.6c0,0,4.2,2.5,7.2,7.9c5.5,9.8,6.5,25.4-2.6,34.2L949.1,178z"/>
	<path class="st21" d="M974.7,468.7c0,0-2,2.2-5.6,3.9c-4,1.9-9.8,3.3-9.6,3.9h19.5c0,0,1.7-4.2-0.3-7.7H974.7z"/>
	<path class="st27" d="M948.4,189.1c0,0,1.6,11.2,5.1,16c0,0,3,2.6,4.1,4.5c0,0-0.9,3-0.9,3.1c0,0.1,11.3,16.4,16.1,14.5
		c8-3.2,17-12.4,12.6-24l-14.5-27.5L948.4,189.1z"/>
	<g>
		<polygon class="st28" points="1062.3,476.8 1036.8,364.8 1041.2,363.5 1064,476.8 		"/>
		<polygon class="st28" points="988.5,476.8 1014,364.8 1009.6,363.5 986.8,476.8 		"/>
		<rect x="1000.4" y="372.6" class="st29" width="49.9" height="4.6"/>
		<polygon class="st29" points="1071.7,476.8 1046.2,364.8 1050.6,363.5 1073.4,476.8 		"/>
		<polygon class="st29" points="979.1,476.8 1004.6,364.8 1000.2,363.5 977.4,476.8 		"/>
		<rect x="988.7" y="364.8" class="st28" width="73.3" height="2.8"/>
		<rect x="977.4" y="356.1" class="st29" width="96" height="9.2"/>
		<rect x="977.4" y="356.1" class="st30" width="96" height="1.2"/>
	</g>
	<g>
		<polygon class="st31" points="931.4,230.4 927.9,225.6 944.4,213.6 948.6,219.3 		"/>
		<polygon class="st32" points="944.8,214.8 945.6,213.2 949.7,218.5 947.9,218.8 		"/>
		<g>
			<polygon class="st32" points="947.1,217.2 929.8,228.2 929.8,228.2 931.5,230.3 948.6,219.3 			"/>
		</g>
		<path class="st32" d="M931.8,241.6c-0.7-1-2-1.5-3-1c-1,0.5-1.3,1.8-0.9,3l0,0l3.3,6.3c0,0,1.1,0.7,2.5,0c1.4-0.7,1.5-2,1.5-2
			L931.8,241.6L931.8,241.6z"/>
		<path class="st32" d="M918.9,241.6c0.7-1,2-1.5,3-1c1,0.5,1.3,1.8,0.9,3l0,0l-3.3,6.3c0,0-1.1,0.7-2.5,0c-1.4-0.7-1.5-2-1.5-2
			L918.9,241.6L918.9,241.6z"/>
		<rect x="887.7" y="289" class="st33" width="46.7" height="6.1"/>
		<polygon class="st34" points="887.7,289 887.7,295.1 888.9,295.1 888.9,289.9 933.1,289.9 933.1,295.1 934.4,295.1 934.4,289 		
			"/>
		<path class="st31" d="M885.6,291.5v10.8h55.2c0,0,0.7-3.1-1.2-5.1C929.9,287.6,885.6,291.5,885.6,291.5z"/>
		<polygon class="st33" points="911,260.6 890.1,260.6 891.9,289 911,289 		"/>
		<rect x="911" y="261.7" class="st31" width="2.3" height="15.4"/>
		<path class="st31" d="M905,272.2c2,2.8,1.7,6.5-0.8,8.2c-2.5,1.7-6.1,0.9-8.1-1.9c-2-2.8-1.7-6.5,0.8-8.2
			C899.3,268.5,903,269.4,905,272.2z"/>
		<path class="st33" d="M890.1,260.6c0,0-0.6-14.5,6.8-22.2c7.4-7.6,21.2-8.7,21.2-8.7v4.8c0,0-8.9,3.3-13.3,11.2
			c-3.8,6.9-2.8,14.9-2.8,14.9S893.4,263.1,890.1,260.6z"/>
		<path class="st35" d="M903.2,242.4c-7.5,7.7-6.3,18.2-6.3,18.2h5c0,0-1-8,2.8-14.9c4.4-8,13.3-11.2,13.3-11.2v-1.7
			C918.1,232.8,910.6,234.8,903.2,242.4z"/>
		<rect x="920.6" y="281.6" class="st31" width="8.6" height="7.4"/>
		<path class="st31" d="M929.5,262h-9.2c0,0-1.3,0.6-1.3,2.5c0,1.9,0,8.2,0,8.2h11.8c0,0,0-5.9,0-8.2
			C930.8,262.2,929.5,262,929.5,262z"/>
		<polygon class="st31" points="913.1,267.4 912.2,266.8 916.2,261.4 917.1,262.1 		"/>
		<rect x="919.9" y="287.4" class="st32" width="9.9" height="1.6"/>
		<rect x="919.9" y="281.6" class="st32" width="9.9" height="0.5"/>
		<path class="st31" d="M933.3,240.6c0,0-1.1,2.9-7.4,2.9c-6.3,0-7.9-2.9-7.9-2.9V225h15.3V240.6z"/>
		<rect x="916.8" y="227.2" class="st31" width="1.7" height="11.2"/>
		<path class="st32" d="M920.6,241.4c6.3,0,7.9-1,7.9-1V225h5.1v15.5c0,0-1.4,3-7.9,3c-4.2,0-6.1-1.4-6.9-2.2
			C919.3,241.3,919.9,241.4,920.6,241.4z"/>
		<ellipse class="st32" cx="925.4" cy="242.4" rx="2.5" ry="3"/>
		<path class="st31" d="M927.9,242.5c-0.2-1.4-1.2-2.5-2.4-2.5c-1.2,0-2.2,1.1-2.4,2.5h0v8c0,0,0.8,1.2,2.5,1.2
			c1.7,0,2.5-1.2,2.5-1.2L927.9,242.5L927.9,242.5z"/>
		<path class="st32" d="M904.2,272.7c1.7,2.3,1.4,5.4-0.7,6.8s-5,0.7-6.7-1.6c-1.7-2.3-1.4-5.4,0.7-6.8
			C899.5,269.7,902.5,270.4,904.2,272.7z"/>
		<rect x="891.9" y="287.4" class="st35" width="19.1" height="1.6"/>
		<rect x="918.1" y="227.2" class="st32" width="15.3" height="1"/>
		<rect x="918.1" y="229.9" class="st32" width="15.3" height="1"/>
		<path class="st32" d="M927.9,242.5c-0.2-1.4-1.2-2.5-2.4-2.5c0.5,0.4,0.8,1.1,0.9,1.8h0v8.4c0,0-0.8,0.8-2.5,0.8
			c-0.2,0-0.3,0-0.4,0c0.4,0.3,1,0.7,1.9,0.7c1.7,0,2.5-1.2,2.5-1.2L927.9,242.5L927.9,242.5z"/>
		<path class="st32" d="M929.5,262h-3.9c0,0,1.3,0.2,1.3,2.5c0,2.3,0,8.2,0,8.2h3.9c0,0,0-5.9,0-8.2
			C930.8,262.2,929.5,262,929.5,262z"/>
		<rect x="918.1" y="269.9" class="st31" width="13.7" height="1.9"/>
		<rect x="918.1" y="271.1" class="st32" width="13.7" height="0.6"/>
		<rect x="912.6" y="260.6" class="st31" width="24" height="2.3"/>
		<rect x="925.7" y="281.6" class="st32" width="3.5" height="7.4"/>
		<path class="st34" d="M898.1,238.4c6.1-6.2,16.4-8.1,19.9-8.6v-0.1c0,0-13.8,1.1-21.2,8.7c-7.5,7.7-6.8,22.2-6.8,22.2l1.8,28.4
			h1.2l-1.8-28.4C891.3,260.6,890.7,246.1,898.1,238.4z"/>
	</g>
	<path class="st27" d="M957.4,211.3c0,0-4.5,1.7-4.3,3.1c0.3,1.4,6,1.8,6.8,0.7C960.7,213.9,957.4,211.3,957.4,211.3z"/>
	<g>
		<path class="st22" d="M959.9,215c0.7-0.9-0.1-2.1-3.1-1.8c-1.6,0.2-2.9,0.6-3.7,1.2C953.6,215.7,959.1,216.1,959.9,215z"/>
	</g>
	<path class="st26" d="M985.3,200.4c-5.6,3.1-15.5-9.4-15.3-16.6c-9.1,9.6-25.2,7.9-26.4,4.4c-1.8-5.3,13.9-22.7,34.4-18.7
		c11.9,8,13.2,24.3,7.5,30.9L985.3,200.4z"/>
	<g>
		<path class="st36" d="M989.1,176.3c-0.6-1-1.1-1.9-1.7-2.7c-3.4,5.8-7.8,11.3-14.4,10.3c2.1-5.2,7.3-11.4,10.5-14.4
			c-0.9-0.8-1.6-1.2-1.6-1.2c-0.8-0.4-1.6-0.7-2.5-1c1.2,3.9-5.1,8.8-8.8,11.1c-8.8,5.4-20.5,8.3-26.5,6.5c-0.8,1.7-1.3,3.2,0.2,4.3
			c3.7,2.7,17.4,3,25.5-5.5c-0.2,7.2,9.7,19.7,15.3,16.6l1.3,10.1C995.7,201.7,994.6,186.1,989.1,176.3z"/>
	</g>
	<g>
		
			<ellipse transform="matrix(0.1581 -0.9874 0.9874 0.1581 632.9642 1143.5149)" class="st27" cx="987" cy="200.6" rx="6.8" ry="4"/>
		
			<ellipse transform="matrix(0.1581 -0.9874 0.9874 0.1581 632.9468 1143.5083)" class="st22" cx="987" cy="200.6" rx="3.9" ry="2.3"/>
	</g>
	<path class="st36" d="M969.9,183.8c-5.7,10.1-21.2,10.5-23.2,6.5l-0.7-0.2c2.5,7.8,21.5,3.7,25.2-5L969.9,183.8z"/>
	<path class="st26" d="M981.9,168.4c0,0-0.6-20.5,15.7-17.2c16.3,3.3,14.4,30.5,22.9,20.2c0,0-2.9,18.9-17.1,15
		c-14.1-3.9-10.6-30.7-21.2-17.8L981.9,168.4z"/>
	<path class="st36" d="M1018.5,173.3c-0.3,0.2-0.5,0.3-0.7,0.3c-2.8,1.1-7.4,1.8-14.6-0.2c-14.1-3.9-10.3-20.7-20.9-7.8l-0.2-0.1
		c-0.2,1.7-0.1,2.8-0.1,2.8l0.4,0.3c10.6-12.9,7,13.9,21.2,17.8c12.6,3.5,16.3-11.1,16.9-14.3C1020,172.5,1019.3,172.9,1018.5,173.3
		z"/>
	<path class="st36" d="M982.1,168.7c0,0,1.1-12,7.1-10c5.3,1.7,7.2,14.7,21.8,15.5c0.2,0,0.7-0.1,0-0.2c-14.5-1.8-16.7-19.1-24-17.1
		C987,156.9,981.7,157,982.1,168.7z"/>
	<g>
		<path class="st37" d="M986,207.3c-0.5-0.1-0.9-0.3-1.3-0.7c1.8,10.1-6.3,17.9-13.5,20.7c0,0,0,0,0,0c0.6,0.1,1.1,0.1,1.6-0.1
			c7-2.8,14.9-10.3,13.6-20C986.2,207.3,986.1,207.3,986,207.3z"/>
	</g>
	<path class="st25" d="M990.2,228.4c-0.8,29.5-3.2,35,0.3,43.1c3.4,8.1,41,29.8,35.8,52.3l26.2-8.1c-23.4-36.5-15-53.2-30.5-73.4
		C1013.3,231.2,996.8,218.6,990.2,228.4z"/>
	<g>
		<path class="st25" d="M1037.2,320.5l15.2-4.7c-14.6-22.8-16.8-37.8-20.2-50.8l-31-21.4c4.2,15.1,2.3,24.8,1.3,26.8
			c-1,2-6.5,3.9-10.5,3.5c7.5,8.9,35.1,26.9,34.7,46l0,0C1029.5,319.4,1033.2,319.8,1037.2,320.5z"/>
	</g>
	<path class="st25" d="M1052.3,315.7c0,0,2.7,5,4.4,11.4c1.7,6.4,0.8,19.3-7.6,29h-85.5c0,0-21.1-0.6-20-12.4
		C944.6,331.9,1052.3,315.7,1052.3,315.7z"/>
	<path class="st27" d="M943.5,343.7c0,0-2.2,8.9,4.7,15.5c0,0,8.6,1.7,10.1-5.2C959.8,347.2,947.7,337.7,943.5,343.7z"/>
	<path class="st27" d="M948.2,359.3c0,0,22.5,54.1,26.5,109.4c0,0,1.4,0,4.1,0c1.1-30.5,4.2-72.6-0.9-90.3
		c-11-19.8-19.6-24.3-19.6-24.3S945.7,353,948.2,359.3z"/>
	<path class="st38" d="M992.5,217.7l-5.3,10c0.2,3.2,0.1,6.7,1.7,10.5c0,0,3.2-12.4,10.1-13.1L992.5,217.7z"/>
	<g>
		<rect x="928.3" y="330.6" class="st29" width="4.3" height="146.2"/>
		<rect x="942.3" y="330.6" class="st29" width="4.3" height="146.2"/>
		<polygon class="st39" points="896,476.8 801.7,476.8 801.7,337.4 896,333.2 		"/>
		<polygon class="st39" points="980.8,333.2 801.7,339.2 801.7,305.5 980.8,305.5 		"/>
		<rect x="801.7" y="305.5" class="st40" width="179" height="11.6"/>
		<rect x="790" y="302.5" class="st29" width="212" height="6.1"/>
		<rect x="809.6" y="334.9" class="st41" width="78.7" height="129.3"/>
		<rect x="790" y="302.5" class="st30" width="212" height="1.4"/>
		<polygon class="st42" points="893.9,334.6 893.9,476.8 896,476.8 896,336 980.8,333.2 980.8,331.9 		"/>
	</g>
	<path class="st27" d="M1050.4,279.6c0,0-10.8,0.8-23.5,4c-12.6,3.2-15.7,6.7-41.9,16.1c0,1.2,0,2.7,0,2.7s47.5-3.6,69.6-15.2
		L1050.4,279.6z"/>
	<path class="st25" d="M1014,261.4c8.7,6.9,37.8,28.2,40.6,25.8c2.8-2.4-11.9-20.4-27-35.9c-14.1-14.5-26.3-19.3-30.4-16.8
		C993.2,236.9,995.8,247,1014,261.4z"/>
	<path class="st25" d="M1045.3,280.2c-4.4,0.6-11.1,1.6-18.4,3.5l4.2,11.6c8.8-2.1,17.3-4.8,23.6-8.1
		C1055.8,286.6,1052.3,279.3,1045.3,280.2z"/>
	<path class="st27" d="M985,299.8c0,0-9.4-4.1-12.4-3.1v5.8H985C985,302.4,986.6,300.4,985,299.8z"/>
	<path class="st27" d="M972.6,296.7c0,0-2.8,1.5-4.9,2.5c0,0-6.2,2.6-6.1,3.2h11C974,300.1,973.6,298.8,972.6,296.7z"/>
	<path class="st38" d="M1024,283.5l4.5-1.5c0,0,3.8,4.9,4.2,6.2c0.3,1.1,1.8,7.9,1.8,7.9l-6.9,1.7c0,0-0.4-6.8-1-8.5
		C1026.4,288.6,1024,283.5,1024,283.5z"/>
	<path class="st22" d="M939.9,218.1c0.5,1.1,0.9,2.4,0.3,2.7c-0.6,0.3-1.7-0.9-2.5-1.9c-0.8-1-1.4-1.8-0.1-2.6
		C938.7,215.7,939.4,217.1,939.9,218.1z"/>
	<path class="st22" d="M937.2,218.9c0.8,1.1,1.8,2.9,1.1,3.3c-0.7,0.4-2.2-1.2-3.2-2.3c-0.7-0.8-1.7-2,0-2.5
		C936,217.1,936.6,218.1,937.2,218.9z"/>
	<path class="st22" d="M934.8,220.2c0.7,1,1.8,2.8,1.1,3.2c-0.7,0.4-2-0.9-2.9-1.9c-0.8-0.9-1.6-1.6-0.2-2.4
		C933.4,218.7,934.2,219.5,934.8,220.2z"/>
	<path class="st22" d="M932.7,222.1c0.6,0.9,1.5,2.4,0.9,2.7c-0.6,0.3-1.7-0.7-2.5-1.5c-0.9-0.9-1.4-1.3-0.4-2.2
		C931.4,220.4,932.2,221.3,932.7,222.1z"/>
	<path class="st22" d="M943.7,224.8c0,0,3-4.4,1.6-4.7c-1.4-0.4-3.1,3.4-3.1,3.4L943.7,224.8z"/>
	<path class="st25" d="M1057.3,330.6c-7.7,23.4-8,20-93.7,20c0,0-2.5-0.1-5.7-0.6c0.6,1.4,0.8,2.8,0.5,4.1c0,0,0.9,0.5,2.5,1.8
		c1.6,0.2,2.7,0.2,2.7,0.2h85.5C1056.1,348,1057.9,337.6,1057.3,330.6z"/>
	<path class="st22" d="M963.9,302.5c0,0,6.5-1.3,8.5-1.6l1.6,1.5L963.9,302.5z"/>
	<g>
		<path class="st21" d="M1033.5,291.5l-6.2,1.5c0.2,2.3,0.4,4.7,0.4,4.7l6.9-1.7C1034.5,296,1034,293.7,1033.5,291.5z"/>
	</g>
	<g>
		<path class="st27" d="M970.8,472.6c0.9,1.3,8-3.9,8-3.9c-1.5-0.7-2.7-0.8-4.1,0c0,0-1.4,1.3-4,3
			C970.6,472,970.7,472.3,970.8,472.6z"/>
	</g>
	<g>
		<path class="st37" d="M1027.2,292.1c-20.5,6.4-42.1,10.3-42.1,10.3s21.6-1.6,42.5-6.3C1027.4,295,1027.3,293.5,1027.2,292.1z"/>
	</g>
</g>
</svg>
