<?xml version="1.0" encoding="utf-8"?>
<!-- Generator: Adobe Illustrator 21.1.0, SVG Export Plug-In . SVG Version: 6.00 Build 0)  -->
<svg version="1.1" id="Layer_1" xmlns="http://www.w3.org/2000/svg" xmlns:xlink="http://www.w3.org/1999/xlink" x="0px" y="0px"
	 viewBox="0 0 1136.6 643.2" style="enable-background:new 0 0 1136.6 643.2;" xml:space="preserve">
<style type="text/css">
	.st0{fill:none;}
	.st1{fill:url(#SVGID_1_);}
	.st2{fill:#514E7F;}
	.st3{opacity:0.2;enable-background:new    ;}
	.st4{opacity:0.1;enable-background:new    ;}
	.st5{fill:#007BFF;}
	.st6{opacity:0.15;enable-background:new    ;}
	.st7{fill:#945B79;}
	.st8{fill:#FFC1C7;}
	.st9{fill:#FF6584;}
	.st10{opacity:0.1;}
	.st11{fill:#227C6A;}
	.st12{fill:#EA9957;}
	.st13{fill:#75757F;}
	.st14{fill:#DD8A4B;}
	.st15{fill:#3F3D56;}
	.st16{fill:#BC572A;}
	.st17{fill:#F4AA67;}
	.st18{fill:#515151;}
	.st19{fill:#59595B;}
	.st20{fill:#FFDF9F;}
	.st21{fill:#484849;}
	.st22{fill:#3D3D3D;}
	.st23{fill:#FFE5B6;}
	.st24{fill:#EAC494;}
	.st25{fill:#F4D59F;}
	.st26{fill:#AD4921;}
	.st27{fill:#ED9F5F;}
	.st28{fill:#268774;}
	.st29{fill:#CBCBD8;}
	.st30{fill:#A5A5B5;}
	.st31{fill:#B5B5C4;}
	.st32{fill:#7E7E8E;}
	.st33{opacity:0.9;}
	.st34{fill:url(#SVGID_2_);}
	.st35{fill:#A1616A;}
	.st36{fill:#FF748E;}
	.st37{fill:#5E5A6B;}
	.st38{fill:#464353;}
	.st39{fill:#9F9EFF;}
</style>
<rect id="backgroundrect" class="st0" width="1136.6" height="643.2"/>
<title>status update</title>
<g>
	<title>Layer 1</title>
	
		<linearGradient id="SVGID_1_" gradientUnits="userSpaceOnUse" x1="462.855" y1="-9.4583" x2="462.855" y2="426.8825" gradientTransform="matrix(1 0 0 -1 -39.48 619.9)">
		<stop  offset="0" style="stop-color:#808080;stop-opacity:0.25"/>
		<stop  offset="0.54" style="stop-color:#808080;stop-opacity:0.12"/>
		<stop  offset="1" style="stop-color:#808080;stop-opacity:0.1"/>
	</linearGradient>
	<path class="st1" d="M706.1,557.1l-6.3-20c0,0-5.3-14.2-4.4-21.8c0.8-7.6-1.8-15.9-1.8-15.9l5.2-26.9c0,0,0.3-2.9,0.3-6.8
		c0-6.4-0.9-15.5-5.4-17.8c-7.1-3.8-21.7-35.5-24.8-35.5c-3.1,0-12.9-2-12.9-5.5c0-0.1,0-0.3,0-0.4c0,0,0-0.1,0-0.1
		c0,0,0-0.2-0.1-0.3l0-0.1l-0.1-0.3l0-0.1c-0.4-0.7-0.9-1.3-1.4-1.9c13.3-2.5,26.5-5.3,39.6-8.6h-0.5l0.5-0.1
		c-1.7,0-3.5-0.1-5.2-0.4l-0.4,0.1c-19.3-2.6-36.7-17.7-41.4-36.9c-5.2-21.2,3.9-43.3,3.5-65.1c-0.3-13.8-4.4-27.3-11.9-38.9
		c-1-1.6-2.1-3.1-3.2-4.5c14.8-7.2,21-25,13.8-39.8c-0.7-1.4-1.4-2.7-2.3-3.9c-0.3-0.5-0.7-1-1.1-1.4c7.2,12,5.2,27.3-4.9,37
		c7.9-14.3,2.7-32.3-11.7-40.2c-14.3-7.9-32.3-2.7-40.2,11.7c-0.1,0.2-0.2,0.3-0.3,0.5c-0.6-0.3-1.3-0.6-1.9-0.8
		c4-11.1,14.2-18.7,26-19.4c-0.6,0-1.2-0.1-1.8-0.1c-11.9,0-22.7,7.2-27.3,18.2c-8.9-3.3-18.1-4.6-27.3-2.3c-1.7,0.4-3.3,1-4.9,1.7
		l0.4-0.3c-2.3,1-4.3,2.3-6.2,3.9c-2.7,2.5-4.7,5.8-7,8.7c-2.4,2.9-5.1,5.4-8.3,7.5c0.3-0.1,0.5-0.3,0.8-0.4
		c-10.5,7.4-24.8,9.6-36.8,4.8c-3.4-1.3-6.6-3.2-10.2-3.7c-2.7-0.3-5.5,0.1-8.1,1.2c0.1-0.1,0.2-0.2,0.3-0.3
		c-3.3,1.4-6.2,3.5-8.5,6.4c-3.9,4.8-5.9,11-7.3,17c-1,4.3-1.6,8.7-1.6,13.1c0.1,5.7,1.3,11.1,4.7,15.6c5.2,6.8,12.4,8.6,19.9,9.9
		c-0.2,0.8-0.4,1.5-0.6,2.3c-8.9,35.2,11.7,71.2,46.6,81.3l1.5,2.5l0.5,0.1c3.5,5.9,7.3,12.5,10.8,18.8c0.2,0.3,0.4,0.7,0.6,1
		l-6.7,3.4l0,0c-1.7,0.9-6.1,3.3-8.5,5.6c-0.7,0.6-1.2,1.4-1.6,2.2c-1,3.4-6.4,12.3-10.2,14.7c-3.7,2.4-6.8,14-6.4,20.1
		s-2,5.5-8.1,5.8s0,9.2,0,9.2l0.2,0.6c-0.3,0.5-0.6,1-1,1.6c-1.6,2.4-3.6,5.1-5.1,4.9c-2.7-0.3-4.4,6.4-4.2,7.4
		c0.2,1-4.8,9.2-6.6,10.1c-1.9,0.9-9.8,2.5-7.6,10.1l-9.7,9.9l-7.8,7.5c0,0-11.2-6.3-29.4,13.3c2-0.2,4.1,0,6,0.6l-0.5,0.3
		c-4.8,2.3-13.1,6.1-19.2,8.6l-32.6,1v-24.3c0,0-2.9-6.8-6.3,0l-0.9,24.6l-70.9,2.3l13.3-14.1l0,0l0.2-0.2c2.9-3.1,3.9-7.5,2.6-11.5
		l-55.4-174.2l0,0l-0.4-1.2c-1.1-3.5-4.2-6.1-7.8-6.6l-77-10.4l-0.5-0.1l-7.1,1.9c-3.7,1-5.9,4.8-4.9,8.5c0,0,0,0.1,0,0.1
		c1.8,6.3,4.8,16.5,8.6,29.4h-10.6l8.1,70.3l5,27.1c1.3,6.9,2.8,13.8,4.4,20.6c4.1,16.5,12.2,51.6,12.4,72l-59.6,65v13.2H518
		c0,0,0,0.1,0.1,0.1h185.5c0,0-2-3.6,2.4-8.7c4.4-5.1,2.2-25.4,2.2-25.4s-2.5-3.2,0.5-10.4C711.6,577.6,706.1,557.1,706.1,557.1z
		 M233,541.8l-10.1,0.3l-9.4-61.2C220.4,503.3,227.2,524.6,233,541.8z M493.5,579l-6.6-13.4c1.5,0.1,3-0.3,4.3-1.1
		c4.2-3.1,6.8-10.2,6.8-10.2l11.4-13.5l0.9-1.1c2.3,6.4,5,11.5,7.2,14c5.4,6.1,6.1,23.9,7.8,30.4c1.7,6.5,0.4,3.8,0,7.5
		c-0.1,0.9,0,1.8,0.2,2.7C518,586.1,507.3,578.8,493.5,579z"/>
	<polygon class="st2" points="141.1,616.3 208,543.7 473.9,535.2 520.3,629.4 141.1,629.4 	"/>
	<polygon class="st3" points="141.1,616.3 208,543.7 473.9,535.2 520.3,629.4 141.1,629.4 	"/>
	<path class="st2" d="M487.4,610.2v2.5c0,2.7-2.2,4.9-4.9,4.9H339.6c-2.7,0,0-5.4,0-5.4l-1.6-35.4c-0.1-2.8,1.7-5.3,4.4-5.9
		c8-2,13.4,1.2,13.4,1.2l88.5-2.3c1.8-0.1,3.7,0,5.5,0.3c6.5,0.9,12.4,4.3,16.2,9.6l20.3,27.6C487,608.2,487.4,609.2,487.4,610.2z"
		/>
	<path class="st4" d="M487.4,612.7L487.4,612.7c0,2.7-2.2,4.9-4.9,4.9H339.6c-2.7,0,0-5.4,0-5.4s7.9-3.8,19.6-3.1l104.3-2.3
		c0,0,12.3,0.3,19.5,1.1C485.5,608.2,487.4,610.3,487.4,612.7z"/>
	<polygon class="st5" points="446.8,576 357.2,576 359.6,603.2 463.5,601.4 	"/>
	<path class="st2" d="M294.8,595.1v9.5l-93.9,3.8c0,0-21.5-1.5-24.1-14.7c-0.2-1.4-0.2-2.8,0.1-4.2c0.9-5.6,5.7-15.3,26.7-19.8
		l25.9-2.7h57.7C287.1,567.1,294.5,574.6,294.8,595.1z"/>
	<path class="st4" d="M294.8,595.4v9.2l-93.9,3.8c0,0-21.5-1.5-24.1-14.7c-0.2-1.4-0.2-2.8,0.1-4.2c0,0,13,12.3,30.6,10.5l82.7-3.6
		C291.6,596.2,293.2,595.8,294.8,595.4z"/>
	
		<ellipse transform="matrix(0.9987 -5.146447e-02 5.146447e-02 0.9987 -29.602 12.2273)" class="st4" cx="222.6" cy="580.9" rx="28.9" ry="5"/>
	<path class="st2" d="M231.8,578.6l-15.2,7.5l-16.2-3.8l-0.1-26.4c1-19.2-7.8-57.7-12.2-75.2c-1.7-6.7-3.2-13.5-4.4-20.4l-5-26.8
		l-8.1-69.6h19.3l11.3,16.2L231.8,578.6z"/>
	<path class="st2" d="M231.8,578.6l-15.2,7.5l-9.7-56.3c0.2-9.6-11.8-55.1-12.6-57c-9.6-22.9-17.8-108.8-17.8-108.8h13.4l11.3,16.2
		L231.8,578.6z"/>
	<path class="st6" d="M231.8,578.6l-15.2,7.5l-9.7-56.3c0.2-9.6-11.8-55.1-12.6-57c-9.6-22.9-17.8-108.8-17.8-108.8h13.4l11.3,16.2
		L231.8,578.6z"/>
	<path class="st2" d="M322.4,526.4l-51.8,54.5l-6.1,0.4l-7.4,0.5c-3.5,0.3-6.8-1.7-8.2-4.9c-15.7-35.3-65.8-205.9-76.4-242.1
		c-1.1-3.6,1-7.4,4.7-8.5c0.1,0,0.1,0,0.2,0l7.1-1.9l0.5,0.1l75.4,10.1c4.4,0.6,8.1,3.7,9.4,7.9L325,515
		C326.3,518.9,325.3,523.3,322.4,526.4z"/>
	<path class="st4" d="M322.4,526.4l-51.8,54.5l-6.1,0.4l-7.4,0.5c-3.5,0.3-6.8-1.7-8.2-4.9c-15.7-35.3-65.8-205.9-76.4-242.1
		c-1.1-3.6,1-7.4,4.7-8.5c0.1,0,0.1,0,0.2,0l7.1-1.9l0.5,0.1l75.4,10.1c4.4,0.6,8.1,3.7,9.4,7.9L325,515
		C326.3,518.9,325.3,523.3,322.4,526.4z"/>
	<path class="st2" d="M322.2,526.6l-51.6,54.4l-6.1,0.4l-77.4-247.8c-1.3-2.8-2.1-5.9-2.2-9.1l76.7,10.3c3.6,0.5,6.7,3,7.8,6.5
		l55.5,173.4C326.3,518.9,325.2,523.4,322.2,526.6z"/>
	<path class="st5" d="M318.4,517.4c-0.6,1-1.3,1.8-2.1,2.6l-50.8,47.2l-69.3-229.6l66.5,6.6c4.7,0.5,8.7,3.7,10,8.3l46.7,155.6
		C320.5,511.2,320.1,514.6,318.4,517.4z"/>
	<path class="st4" d="M318.4,517.4l-55.6-173.2c4.7,0.5,8.7,3.7,10,8.3l46.7,155.6C320.5,511.2,320.1,514.6,318.4,517.4z"/>
	<circle class="st7" cx="616.7" cy="231.3" r="29.4"/>
	<path class="st7" d="M586.9,227c0-15.6,12.1-28.5,27.7-29.4c-0.6,0-1.2-0.1-1.7-0.1c-16.3-0.3-29.7,12.7-29.9,29s12.7,29.7,29,29.9
		c0.3,0,0.6,0,1,0c0.6,0,1.2,0,1.7-0.1C599.1,255.4,586.9,242.6,586.9,227z"/>
	<path class="st4" d="M590.7,231.3c0-15.6,12.1-28.5,27.7-29.4c-0.6,0-1.2-0.1-1.8-0.1c-16.3,0.3-29.2,13.7-29,29.9
		c0.3,15.9,13.1,28.7,29,29c0.6,0,1.2,0,1.8-0.1C602.9,259.8,590.7,246.9,590.7,231.3z"/>
	<path class="st8" d="M465.1,561.5c-2.8,1.5-5.6,2.7-8.5,3.9c-7.6,3-19.1,6.4-29.9,5.1c-18.1-2.2-28.9,3.7-28.9,3.7l-4.1-30.1
		c0,0,13.3-3.9,18.8-4.9c4.1-0.8,18.7-7.5,25.8-10.9c2.4-1.1,3.8-1.8,3.8-1.8h13.5L465.1,561.5z"/>
	<path class="st4" d="M465.1,561.5c-2.8,1.5-5.6,2.7-8.5,3.9c-0.9-26.8-11.2-34.7-18.3-37c2.4-1.1,3.8-1.8,3.8-1.8h13.5L465.1,561.5
		z"/>
	<path class="st9" d="M515.1,471.7v65.9l-3.5,4.2l-11.3,13.4c0,0-2.5,7.1-6.8,10.1c-4.2,3.1-13.9-1-13.9-1l-2.7,4.4
		c0,0-6.1,1.2-8.9,0c-2.9-1.2-10,3.4-10,3.4c1-48.3-25.2-44.4-25.2-44.4c18.1-19.4,29.2-13.2,29.2-13.2l7.8-7.4l9.6-9.8
		c-2.2-7.6,5.7-9.2,7.6-10c1.9-0.8,6.8-9,6.6-10c-0.2-1,1.5-7.6,4.2-7.3c1.5,0.1,3.6-2.5,5.1-4.9c1.2-1.9,2.1-3.7,2.1-3.7
		L515.1,471.7z"/>
	<path class="st9" d="M538.5,405.8l19.9-10.2l-1.1,11.9l3.9,12c0,0-3.6,9.3-4,10.3s-9,22.2-9,22.2l-6.9-8.7L538.5,405.8z"/>
	<polyline class="st4" points="541.3,443.4 538.5,405.8 558.4,395.6 	"/>
	<path class="st8" d="M624.1,394.6c0,0-6.6,9.5-15.7,21.7c-21.1,28.2-55.4,70.6-50.2,39.9c0.2-1,0.3-2,0.4-3
		c-1.3,0.9-4.2,0.1-7.5-1.4l-0.2-0.1c-1.6-0.8-3.1-1.7-4.6-2.7c-0.2-0.1-0.3-0.2-0.5-0.3c-3.6-2.5-6.4-5.4-6.3-7.4
		c2.5-44.1,12.8-23.1,15.7-18.2c0.2,0.3,0.4,0.7,0.7,0.9c-0.1-0.3-0.3-0.7-0.4-1.1c-2-5-5.9-12.4-10.3-20.3v-0.1l-0.6-1.1
		c-3.7-6.5-7.6-13.4-11.2-19.4l-1-1.6c-5.6-9.5-10-16.5-10-16.5s25.7-23.5,47.3-37.7c18-11.9,33.3-17.4,28.4,2.6
		c-3.1,12.8-2.2,23.8,0.7,32.9c0.1,0.3,0.2,0.7,0.3,1c0.6,1.7,1.3,3.4,2,5.1c1,2.3,2.2,4.5,3.5,6.7
		C609.6,382.5,616.2,389.4,624.1,394.6z"/>
	<path class="st6" d="M584.2,359c-12.2,13.2-14.8,25.9-34.1,25.9c-5.6,0-11.3-0.7-16.7-2.1c-6.1-10.3-11-18.2-11-18.2
		s86.4-79,75.7-35.2C594.8,342.7,581.1,349.7,584.2,359z"/>
	<path class="st8" d="M616.7,316.2c0,36.8-29.8,66.6-66.6,66.6c-36.8,0-66.6-29.8-66.6-66.6s29.8-66.6,66.6-66.6c0,0,0,0,0,0
		c36.6-0.2,66.4,29.4,66.6,66C616.7,315.8,616.7,316,616.7,316.2z"/>
	<path class="st4" d="M548.6,431.4c0,0,1.2,18.9,13.2,17.4c12-1.5,2.9,40.2,2.9,40.2l-13.3,12.2l-14.4,4.4c0,0-12.7-3.7-12.5-4.4
		c0.2-0.7,5.1-40.2,5.1-40.2l7.4-21.1L548.6,431.4z"/>
	<path class="st2" d="M548.6,432.8c0,0,1.2,18.9,13.2,17.4c12-1.5,2.9,40.2,2.9,40.2l-13.3,12.2l-14.4,4.4c0,0-12.7-3.7-12.5-4.4
		c0.2-0.7,5.1-40.2,5.1-40.2l7.4-21.1L548.6,432.8z"/>
	<path class="st4" d="M515.1,471.7v65.9l-3.5,4.2c-3.6-9.7-6.4-22.8-4.7-34.6c2.2-15.6-2.2-35.7-3.8-42.1c1.2-1.9,2.1-3.7,2.1-3.7
		L515.1,471.7z"/>
	<path class="st4" d="M550.1,434.8c-0.4,3.7-1.4,7.3-2.9,10.8c-0.4,1-0.9,2.1-1.3,3c-3.6-2.5-6.4-5.4-6.3-7.4
		c2.5-44.1,12.8-23.1,15.7-18.2C553.9,424.1,550.8,427.2,550.1,434.8z"/>
	<path class="st4" d="M555.5,422.9c-2.1-5.2-6.3-13.1-10.9-21.4l0.6-0.3l10.8,21.5C555.8,422.7,555.7,422.7,555.5,422.9z"/>
	<path class="st4" d="M624.1,394.6c0,0-73.3,105.4-65.9,61.5c0.2-1,0.3-2,0.4-3c-1.3,0.9-4.4,0.1-7.7-1.5c0.5-2.9,0.8-4.9,0.8-4.9
		l8.1-23c0,0,4.7-18.3,4.1-22l0.2-0.1l40.4-27.1h0l0,0C609.5,382.5,616.2,389.4,624.1,394.6z"/>
	<path class="st9" d="M700.2,474.4l-5.7,29.7l-17.3,125.4H527.5c0,0,2.7-22,2.7-25.3s-3-8.4-2.7-12.2c0.3-3.7,1.6-1,0-7.4
		c-1.6-6.4-2.4-24-7.7-30.1c-5.4-6.1-14.2-28.4-11.5-47.3c2.7-18.9-4.4-44.3-4.4-44.3s-6.1-8.8,0-9.1s8.5,0.3,8.1-5.8
		c-0.3-6.1,2.7-17.6,6.4-19.9c3.7-2.4,9.1-11.2,10.1-14.5c0.3-0.9,0.9-1.6,1.6-2.2c3-2.9,9.2-5.9,9.2-5.9l5.9-3v0.1l10.7,21.4
		c0,0-5,2.4-5.9,12.2c-0.4,3.7-1.4,7.3-2.9,10.8c-0.3,0.7-0.6,1.3-0.9,2c-0.9,1.9-1.7,3.6-2.5,5l0,0c-1.1,2-1.9,3.2-1.9,3.2
		s-0.3,2.3-0.7,5.5l0,0c-0.9,6.6-2.4,17-3.3,19.5c-0.8,2.2-2.4,6-3.2,9.4c-0.5,2.1-0.9,4.1-0.6,5.4c0,0.1,0,0.2,0.1,0.3
		c1,3.1,6.1-10.4,6.1-10.4s3.7-11.5,5.4-11.5c1.3,0,4.2-16.2,5.5-23.7c0.4-2.2,0.6-3.7,0.6-3.7l8.1-23c0,0,1.1-4.3,2.2-9.2
		c1.1-5.1,2.2-10.8,1.9-12.8l0.2-0.1l40.4-27.1h0l0.6-0.4h-0.1c-0.3,0-1.1-0.5-2.7-4.2c-0.4-0.9-0.8-2.1-1.3-3.5
		c0,0,12.9-5.2,17.5-1.4c0.3,0.2,0.6,0.5,0.8,0.8c0.1,0.2,0.2,0.4,0.3,0.6c3,6.3,4.4,11,7.4,15c0.3,0.4,0.7,0.8,1.1,1.2
		c3.7,3.9,11,8.4,9.7,9.6c-1.3,1.3,10.1,7.1,10.1,7.1s6.7,3.8,8.8,7.1c0.4,0.5,0.6,1.1,0.6,1.7c0,3.4,9.8,5.4,12.8,5.4
		s17.6,31.4,24.7,35.2C702.2,453.7,700.2,474.4,700.2,474.4z"/>
	<g class="st10">
		<path d="M548.5,423.9c0,0-5,2.4-5.9,12.2c-0.4,3.7-1.4,7.3-2.9,10.8c-1,2.4-2.1,4.7-3.3,6.9l0,0c-1.1,2-1.9,3.2-1.9,3.2
			s-0.3,2.3-0.7,5.5l0,0c-0.9,6.6-2.4,17-3.3,19.5c-0.8,2.2-2.4,6-3.2,9.4c-0.5,2.1-0.9,4.1-0.6,5.4c0,0.1,0,0.2,0.1,0.3
			c1,3.1,6.1-10.4,6.1-10.4s3.7-11.5,5.4-11.5c0.5,0,1.2-2.2,1.9-5.4c0.4-2.6,0.8-5.1,1-7.3l0,0c0.4-3.2,0.7-5.5,0.7-5.5
			s0.4-0.7,1.1-1.9c0.7-4.1,1.2-7.3,1.2-7.3l8.1-23c0,0,0.6-2.3,1.3-5.4l-8.6-17.2l-5.9,3l0,0L548.5,423.9z"/>
		<path d="M695.1,450c-7.1-3.7-21.6-35.2-24.7-35.2c-3,0-12.8-2-12.8-5.4c0-3.4-9.5-8.8-9.5-8.8s-11.5-5.7-10.1-7.1
			c1.2-1.2-6.1-5.7-9.7-9.6c-0.4-0.4-0.7-0.8-1.1-1.2c-3-4.1-4.4-8.8-7.4-15c-0.1-0.2-0.2-0.4-0.3-0.6c-0.2-0.3-0.5-0.6-0.8-0.8
			c-2.1-1.7-5.8-1.6-9.3-1c0.7,0.2,1.3,0.5,1.9,1c0.3,0.2,0.6,0.5,0.8,0.8c0.1,0.2,0.2,0.4,0.3,0.6c3,6.3,4.4,11,7.4,15
			c0.3,0.4,0.7,0.8,1.1,1.2c3.7,3.9,11,8.4,9.7,9.6c-1.3,1.3,10.1,7.1,10.1,7.1s9.5,5.4,9.5,8.8s9.8,5.4,12.8,5.4
			c3,0,17.6,31.4,24.7,35.2s5.1,24.3,5.1,24.3l-5.8,29.8l-17.3,125.4h7.4l17.3-125.4l5.7-29.7C700.2,474.3,702.2,453.7,695.1,450z"
			/>
	</g>
	<path class="st8" d="M399.9,544.8c0,0-43-12.4-46,6.7c-3,19.1,17.6,30.1,30.8,29.7c13.2-0.3,18.9-12.8,18.9-12.8L399.9,544.8z"/>
	<path class="st8" d="M615.5,603.5c0,0-9.6,6.9-30.1,6.9s-44.3,4.4-44.3,4.4s-30.4-71.6-91.4-10.3c0,0-11,14.2,46,15.7
		c0,0,20.1-0.7,24.5,9.3h113.7l15.6-11.6L615.5,603.5z"/>
	<path class="st2" d="M386.7,513.9c0,0-2.9-6.8-6.3,0l-1.8,52.4l4,12.3l4-11L386.7,513.9z"/>
	<path class="st4" d="M619.4,367.2c-5.9,2-12.4,6.7-14.3,8.2c-0.4,0-1.6-0.8-4-7.6C601.1,367.7,615.7,361.9,619.4,367.2z"/>
	<path class="st9" d="M556,423.9c0,0-5,2.4-5.9,12.2c-0.4,3.7-1.4,7.3-2.9,10.8l-3.3,6.9l0,0l-2.6,8.7l0,0l0.3,17.8l-6.9,11.1
		l-0.6,5.4l-1.8,16.6l-9.1-4.4c0,0,3.8-26.8,6.6-32.3s6.6-34.2,6.6-34.2s-0.2-10.6,1.2-12.4c1.4-1.9-2.4-1.5-2.7-5.4
		c-0.2-2.3-2.8-8.7-4.8-13.5c3-2.9,9.2-5.9,9.2-5.9l5.9-3L556,423.9z"/>
	<path class="st4" d="M556,423.9c0,0-5,2.4-5.9,12.2c-0.4,3.7-1.4,7.3-2.9,10.8l-3.3,6.9l0,0l-2.6,8.7l0,0l0.3,17.8l-6.9,11.1
		l-0.6,5.4l-1.8,16.6l-9.1-4.4c0,0,3.8-26.8,6.6-32.3s6.6-34.2,6.6-34.2s-0.2-10.6,1.2-12.4c1.4-1.9-2.4-1.5-2.7-5.4
		c-0.2-2.3-2.8-8.7-4.8-13.5c3-2.9,9.2-5.9,9.2-5.9l5.9-3L556,423.9z"/>
	<path class="st4" d="M628.2,385.4c-7.5,6.2-27.8,23.7-30.1,35.5c-2.9,14.7-11.5,13.2-11.5,13.2c-10.8-23.4-18.2-29.1-22.4-29.9
		l40.4-27.1c0,0,0,0,0,0l0.6-0.4h-0.1c-0.3,0-1.1-0.5-2.7-4.2l16.2-4.9c0.3,0.2,0.6,0.5,0.8,0.8c0.1,0.2,0.2,0.4,0.3,0.6
		c3,6.3,4.4,11,7.4,15C627.5,384.6,627.9,385,628.2,385.4z"/>
	<path class="st9" d="M628.2,384c-7.5,6.2-27.8,23.7-30.1,35.6c-2.9,14.7-11.5,13.2-11.5,13.2c-10.8-23.3-18.2-29.1-22.4-29.9
		l40.4-27.1h0l0.6-0.4h-0.1c-0.3,0-1.1-0.5-2.7-4.2l16.2-4.8c0.3,0.2,0.6,0.5,0.8,0.8c0.1,0.2,0.2,0.4,0.3,0.6c3,6.3,4.4,11,7.4,15
		C627.5,383.2,627.9,383.6,628.2,384z"/>
	<path class="st4" d="M582.6,502.4c0.5-0.2,26.8-15.1,23.8-3.7S582.6,502.4,582.6,502.4z"/>
	<path class="st4" d="M468.7,516.7c0,0,13.9,21.5,18.8,20.9C492.3,536.9,468.7,516.7,468.7,516.7z"/>
	<path class="st4" d="M485.9,508.7c0,0,0.8,16.7,8.1,17.9C501.3,527.7,485.9,508.7,485.9,508.7z"/>
	<path class="st4" d="M562.8,562.4c0,0,17.2,28.6,13.9,38.5L562.8,562.4z"/>
	<path class="st4" d="M582.7,565.8c0,0,23.3,30.6,19.2,33.1S582.7,565.8,582.7,565.8z"/>
	<path class="st4" d="M530.4,516.7c0,0-2.4,21.7,6.6,28.1L530.4,516.7z"/>
	<path class="st4" d="M634.8,419.9c0,0-39.8,30.9-33.5,63s12.5,34.5,12.5,34.5s2.4,12.8,6.8,18.3s3.7,9,3.7,9s4.1-1.9,5.4,7.4
		c1.3,9.3,8.4,15.9,8.4,15.9s2.4,7.4-3.7,11.5c-6.1,4.1-4.7,8.5-4.7,8.5l-24.7,14.4l27.5,27.2h71c0,0-2-3.5,2.4-8.6
		c4.4-5.1,2.2-25.2,2.2-25.2s-2.5-3.2,0.5-10.3c3-7.1-2.6-27.4-2.6-27.4l-6.3-19.8c0,0-5.2-14-4.4-21.5c0.8-7.5-1.7-15.7-1.7-15.7
		l-13.6-43C680.1,458,680.7,415,634.8,419.9z"/>
	<path class="st9" d="M636.1,419.9c0,0-39.9,30.9-33.5,63s12.5,34.5,12.5,34.5s2.4,12.8,6.8,18.3c4.4,5.4,3.7,9,3.7,9
		s4.1-1.9,5.4,7.4c1.4,9.3,8.4,15.9,8.4,15.9s2.4,7.4-3.7,11.5c-6.1,4.1-4.7,8.5-4.7,8.5l-24.7,14.4l27.5,27.2h71c0,0-2-3.5,2.4-8.6
		c4.4-5.1,2.2-25.2,2.2-25.2s-2.5-3.2,0.5-10.3c3-7.1-2.6-27.4-2.6-27.4l-6.3-19.8c0,0-5.2-14-4.4-21.5c0.8-7.5-1.7-15.7-1.7-15.7
		l-13.6-43C681.4,458,682.1,415,636.1,419.9z"/>
	<path class="st4" d="M649.5,441.7c0,0,28.4,9.6,36,14.4C693.1,460.8,674.3,437.4,649.5,441.7z"/>
	<path class="st4" d="M664.3,587.9c0,0,40.4,5.1,38,13C700,608.9,664.3,587.9,664.3,587.9z"/>
	<path class="st4" d="M656.4,596.5c0,0,29.5,9.5,24.3,17.3C675.5,621.6,656.4,596.5,656.4,596.5z"/>
	<path class="st4" d="M656.9,407.8c-16.1,3.1-32.3,5.8-48.5,8.5l-4.2,0.7c-8.9,1.5-17.9,2.9-26.9,2.9c-4.4,0-8.9-0.5-12.8-2.5
		c-0.8-0.4-1.6-1-2.4-1.6c-2.7-2.2-4.7-5.4-4.7-8.9c0-6.3,6-10.7,11.2-14.4c7.6-5.4,15-12.2,17.9-20.7c0.6-1.6,0.9-3.3,1.1-4.9
		c0.9-7.3-1.8-14.4-4.6-21.2c-3.1-7.3-7.3-15.2-13.5-19.7c-2.5-1.8-5.4-3-8.5-3.4c-9.5-1.3-18.4,5.5-28,5.1
		c-7.8-0.3-14.3-5.3-19-11.2c-3.4-4.3-5.5-10-10.7-12.5c-5.5-2.8-11.8-3.4-18-4.3c9.1-35.6,45.3-57.2,80.9-48.1
		c35.6,9.1,57.2,45.3,48.1,80.9c-2.8,10.9-8.2,20.8-15.9,29c0.1,0.3,0.2,0.7,0.3,1c0.6,1.7,1.3,3.4,2,5.1c0,0,12.9-5.2,17.5-1.4
		c0.3,0.2,0.6,0.5,0.8,0.8c0.1,0.2,0.2,0.4,0.3,0.6c3,6.3,4.4,11,7.4,15c0.3,0.4,0.7,0.8,1.1,1.2c3.7,3.9,11,8.4,9.7,9.6
		c-1.3,1.3,10.1,7.1,10.1,7.1S654.8,404.5,656.9,407.8z"/>
	<path class="st7" d="M466.4,287.8c-6-7.7-5.4-18.7-3.1-28.2c1.4-6,3.4-12.1,7.3-16.9c3.9-4.8,10-8.1,16.1-7.3
		c3.6,0.5,6.8,2.3,10.2,3.6c15.1,6,33.9,1,44.1-11.7c2.3-2.9,4.2-6.1,6.9-8.6c3.1-2.6,6.7-4.5,10.7-5.4c17-4.3,34.6,4.2,49.2,14
		c12.4,8.4,24.3,18.2,32.4,30.7c7.4,11.5,11.5,24.8,11.8,38.5c0.4,21.6-8.7,43.5-3.5,64.5c5.2,20.7,25.4,36.7,46.8,36.9
		c-29.3,7.2-59.2,12.1-89,17.1c-8.9,1.5-17.9,2.9-26.9,2.9c-4.4,0-8.9-0.5-12.8-2.5c-3.9-2-7.1-6-7.1-10.4c0-6.3,6.1-10.7,11.2-14.4
		c9-6.4,17.8-14.7,19.1-25.6c0.9-7.3-1.8-14.4-4.6-21.2c-4.3-10.3-10.9-21.7-21.9-23.1c-9.5-1.3-18.4,5.5-28,5.1
		c-7.7-0.3-14.3-5.3-19-11.2c-3.4-4.3-5.5-10-10.7-12.5C492.9,295.8,476.3,300.5,466.4,287.8z"/>
	<path class="st7" d="M639,248.3c12.8-8.9,16.5-26.2,8.4-39.5c0.4,0.5,0.7,0.9,1,1.4c9.5,13.2,6.4,31.6-6.8,41.1s-31.6,6.4-41.1-6.8
		c-0.2-0.2-0.3-0.5-0.5-0.7c-0.3-0.5-0.7-1-0.9-1.5C608.7,254.5,626.2,257.2,639,248.3z"/>
	<g class="st10">
		<path d="M545.7,224.5c2.3-2.9,4.2-6.1,6.9-8.6c0.4-0.4,0.9-0.8,1.4-1.2c-2.2,0.9-4.3,2.2-6.1,3.9c-2.7,2.5-4.6,5.7-6.9,8.6
			c-2.3,2.9-5.1,5.4-8.2,7.5C537.8,232.3,542.2,228.8,545.7,224.5z"/>
		<path d="M611,412.1c-8.9,1.5-17.9,2.9-26.9,2.9c-4.4,0-8.9-0.4-12.8-2.5c-3.9-2-7.1-6-7-10.4c0-6.3,6-10.7,11.2-14.4
			c9-6.4,17.8-14.7,19.1-25.6c0.9-7.2-1.8-14.4-4.6-21.2c-4.3-10.3-10.9-21.7-21.9-23.1c-9.5-1.3-18.4,5.5-28,5.1
			c-7.7-0.3-14.3-5.3-19-11.2c-3.4-4.3-5.6-10-10.7-12.5c-12.7-6.3-29.3-1.6-39.2-14.3c-6-7.7-5.3-18.7-3.1-28.2
			c1.4-6,3.4-12.1,7.3-16.9c1.1-1.3,2.3-2.5,3.7-3.6c-3.3,1.3-6.2,3.5-8.4,6.3c-3.9,4.8-5.9,10.8-7.3,16.9
			c-2.2,9.6-2.9,20.5,3.1,28.2c9.9,12.7,26.5,8,39.2,14.3c5.1,2.5,7.3,8.3,10.7,12.5c4.7,5.9,11.3,10.8,19,11.2
			c9.5,0.4,18.5-6.4,28-5.1c11,1.5,17.6,12.9,21.9,23.1c2.8,6.7,5.5,13.9,4.6,21.2c-1.3,10.9-10.1,19.3-19.1,25.6
			c-5.2,3.7-11.2,8-11.2,14.4c0,4.4,3.1,8.4,7.1,10.4s8.4,2.5,12.8,2.5c9,0.1,18-1.4,26.9-2.9c29.8-4.9,59.7-9.8,89-17.1
			c-1.7,0-3.5-0.1-5.2-0.4C663.9,403.3,637.4,407.7,611,412.1z"/>
	</g>
	<ellipse class="st8" cx="389.6" cy="553.9" rx="12.9" ry="7"/>
	<g>
		<path class="st11" d="M830.4,329c0,0-1.5,1.7-4.4,3c-3.2,1.5-7.6,2.6-7.5,3h15.3c0,0,1.3-3.3-0.2-6H830.4z"/>
		<path class="st12" d="M809.7,243.2c0,0,17.6,42.5,20.8,85.8c0,0,1.1,0,3.2,0c0.9-23.9,3.3-56.9-0.7-70.9
			c-8.6-15.5-15.4-19-15.4-19S807.6,238.3,809.7,243.2z"/>
		<g>
			<path class="st12" d="M827.4,332.1c0.7,1,6.2-3,6.2-3c-1.2-0.6-2.1-0.7-3.2,0c0,0-1.1,1.1-3.1,2.4
				C827.2,331.6,827.3,331.9,827.4,332.1z"/>
		</g>
		<ellipse class="st13" cx="805.5" cy="336.7" rx="141.2" ry="2"/>
		<path class="st11" d="M845.8,132.2c0,0-3.4,2-4.7,7.7c-0.1,2.7-0.3,4.4,0.4,8.1l2.3-2.7L845.8,132.2z"/>
		<path class="st12" d="M806.4,142.1c0,0,1.8-4.4,1.1-5.4c-0.7-1-1.6,0.9-1.6,0.9L806.4,142.1z"/>
		<path class="st12" d="M798.2,138.8c0,0,4,3.6,6.3,3.7c2.3,0.2,1.9-0.4,1.9-0.4s0.3-6-0.8-8.3L798.2,138.8z"/>
		<path class="st12" d="M831.4,185.4c0,0-2.3-7.6-6.7-16.1c-4.4-8.5-7.3-10.1-18.3-27.2c-0.8,0.2-1.9,0.4-1.9,0.4
			s10.3,33.3,22.3,47.2L831.4,185.4z"/>
		<path class="st14" d="M801.4,139.6c0,0,2.2-0.1,3,0.4c0,0,0.9-2.6,1.9-3.3C806.4,136.7,801.7,138.7,801.4,139.6z"/>
		<path class="st15" d="M838.5,156.5c-3.5,7.3-13.9,31.6-11.7,33.2c2.2,1.6,12.6-11.8,21.2-25.1c8.1-12.4,9.5-21.9,7-24.4
			C852.5,137.6,845.8,141.1,838.5,156.5z"/>
		<path class="st15" d="M831.4,185.4c0,0-2.3-7.6-6.7-16.1l-7.6,4.9c2.9,5.9,6.2,11.5,9.6,15.5L831.4,185.4z"/>
		<path class="st11" d="M824.4,167.2l1.8,3c0,0-2.8,3.5-3.7,4c-0.7,0.4-5.3,2.6-5.3,2.6l-2.3-4.6c0,0,4.8-1.4,5.9-2.1
			C821.1,169.8,824.4,167.2,824.4,167.2z"/>
		<path class="st12" d="M841.1,123.5c0,0-0.2,6.8,5.2,11.1l-3.5,4.8c0,0-2.7-5.8-8.8-1.6L841.1,123.5z"/>
		<path class="st16" d="M811.8,101.1c0,0,14.9-13.1,25.8-7.6c0,0,3.3,2,5.7,6.2c4.3,7.7,5.1,19.9-2,26.8L811.8,101.1z"/>
		<path class="st11" d="M831.9,329c0,0-1.5,1.7-4.4,3c-3.2,1.5-7.6,2.6-7.5,3h15.3c0,0,1.3-3.3-0.2-6H831.9z"/>
		<path class="st17" d="M811.3,109.8c0,0,1.2,8.7,4,12.6c0,0,2.3,2,3.2,3.5c0,0-0.7,2.3-0.7,2.5c0,0.1,8.8,12.9,12.6,11.4
			c6.3-2.5,13.4-9.7,9.9-18.8l-11.4-21.5L811.3,109.8z"/>
		<g>
			<polygon class="st18" points="900.6,335.4 880.6,247.6 884,246.5 901.9,335.4 			"/>
			<polygon class="st18" points="842.8,335.4 862.8,247.6 859.3,246.5 841.4,335.4 			"/>
			<rect x="852.1" y="253.7" class="st19" width="39.2" height="3.6"/>
			<polygon class="st19" points="908,335.4 888,247.6 891.4,246.5 909.3,335.4 			"/>
			<polygon class="st19" points="835.4,335.4 855.4,247.6 851.9,246.5 834,335.4 			"/>
			<rect x="842.9" y="247.5" class="st18" width="57.5" height="2.2"/>
			<rect x="834" y="240.7" class="st19" width="75.3" height="7.2"/>
			<rect x="834" y="240.7" class="st20" width="75.3" height="0.9"/>
		</g>
		<g>
			<polygon class="st21" points="798,142.1 795.2,138.3 808.1,129 811.5,133.5 			"/>
			<polygon class="st22" points="808.4,129.9 809.1,128.7 812.3,132.8 810.9,133 			"/>
			<g>
				<polygon class="st22" points="810.2,131.8 796.7,140.4 796.7,140.4 798,142.1 811.5,133.5 				"/>
			</g>
			<path class="st22" d="M798.2,150.9c-0.6-0.8-1.6-1.2-2.3-0.8c-0.8,0.4-1.1,1.4-0.7,2.3l0,0l2.6,5c0,0,0.9,0.5,1.9,0
				c1.1-0.5,1.1-1.6,1.1-1.6L798.2,150.9L798.2,150.9z"/>
			<path class="st22" d="M788.2,150.9c0.6-0.8,1.6-1.2,2.3-0.8c0.8,0.4,1.1,1.4,0.7,2.3l0,0l-2.6,5c0,0-0.9,0.5-1.9,0
				c-1.1-0.5-1.1-1.6-1.1-1.6L788.2,150.9L788.2,150.9z"/>
			<rect x="763.6" y="188.1" class="st23" width="36.6" height="4.8"/>
			<polygon class="st24" points="763.6,188.1 763.6,192.9 764.7,192.9 764.7,188.8 799.3,188.8 799.3,192.9 800.3,192.9 
				800.3,188.1 			"/>
			<path class="st21" d="M762.1,190.1v8.5h43.3c0,0,0.6-2.5-0.9-4C796.8,187,762.1,190.1,762.1,190.1z"/>
			<polygon class="st23" points="782,165.8 765.5,165.8 767,188.1 782,188.1 			"/>
			<rect x="782" y="166.7" class="st21" width="1.8" height="12"/>
			<path class="st21" d="M777.2,174.9c1.6,2.2,1.3,5.1-0.6,6.5c-1.9,1.4-4.8,0.7-6.4-1.5c-1.6-2.2-1.3-5.1,0.6-6.5
				C772.8,172,775.6,172.7,777.2,174.9z"/>
			<path class="st23" d="M765.5,165.8c0,0-0.5-11.4,5.4-17.4c5.8-6,16.6-6.8,16.6-6.8v3.7c0,0-6.9,2.6-10.4,8.8
				c-3,5.4-2.2,11.7-2.2,11.7S768.2,167.8,765.5,165.8z"/>
			<path class="st25" d="M775.8,151.5c-5.9,6-4.9,14.3-4.9,14.3h3.9c0,0-0.8-6.3,2.2-11.7c3.5-6.2,10.4-8.8,10.4-8.8V144
				C787.5,144,781.6,145.6,775.8,151.5z"/>
			<rect x="789.5" y="182.3" class="st21" width="6.7" height="5.8"/>
			<path class="st21" d="M796.5,166.9h-7.2c0,0-1,0.5-1,2s0,6.4,0,6.4h9.2c0,0,0-4.6,0-6.4S796.5,166.9,796.5,166.9z"/>
			<polygon class="st21" points="783.6,171.2 782.9,170.7 786.1,166.5 786.7,167 			"/>
			<rect x="789" y="186.8" class="st22" width="7.8" height="1.2"/>
			<rect x="789" y="182.3" class="st22" width="7.8" height="0.4"/>
			<path class="st21" d="M799.5,150.1c0,0-0.8,2.2-5.8,2.2c-4.9,0-6.2-2.2-6.2-2.2v-12.2h12V150.1z"/>
			<rect x="786.5" y="139.6" class="st21" width="1.4" height="8.8"/>
			<path class="st22" d="M789.5,150.7c4.9,0,6.2-0.8,6.2-0.8v-12.1h4v12.2c0,0-1.1,2.3-6.2,2.3c-3.3,0-4.8-1.1-5.4-1.8
				C788.5,150.7,789,150.7,789.5,150.7z"/>
			<ellipse class="st22" cx="793.3" cy="151.5" rx="1.9" ry="2.3"/>
			<path class="st21" d="M795.2,151.6c-0.2-1.1-0.9-1.9-1.9-1.9c-1,0-1.8,0.8-1.9,1.9h0v6.2c0,0,0.6,1,1.9,1c1.3,0,1.9-1,1.9-1
				L795.2,151.6L795.2,151.6z"/>
			<path class="st22" d="M776.6,175.3c1.3,1.8,1.1,4.2-0.5,5.3c-1.6,1.1-4,0.6-5.3-1.2c-1.3-1.8-1.1-4.2,0.5-5.3
				C773,173,775.3,173.5,776.6,175.3z"/>
			<rect x="767" y="186.8" class="st25" width="15" height="1.2"/>
			<rect x="787.5" y="139.6" class="st22" width="12" height="0.8"/>
			<rect x="787.5" y="141.7" class="st22" width="12" height="0.8"/>
			<path class="st22" d="M795.2,151.6c-0.2-1.1-0.9-1.9-1.9-1.9c0.4,0.4,0.6,0.9,0.7,1.4h0v6.6c0,0-0.6,0.7-1.9,0.7
				c-0.1,0-0.2,0-0.3,0c0.3,0.3,0.8,0.5,1.5,0.5c1.3,0,1.9-1,1.9-1L795.2,151.6L795.2,151.6z"/>
			<path class="st22" d="M796.5,166.9h-3c0,0,1,0.2,1,2c0,1.8,0,6.4,0,6.4h3c0,0,0-4.6,0-6.4C797.5,167.1,796.5,166.9,796.5,166.9z"
				/>
			<rect x="787.5" y="173.1" class="st21" width="10.7" height="1.5"/>
			<rect x="787.5" y="174.1" class="st22" width="10.7" height="0.5"/>
			<rect x="783.2" y="165.8" class="st21" width="18.9" height="1.8"/>
			<rect x="793.5" y="182.3" class="st22" width="2.7" height="5.8"/>
			<path class="st24" d="M771.9,148.4c4.7-4.9,12.9-6.3,15.6-6.7v-0.1c0,0-10.8,0.8-16.6,6.8c-5.9,6-5.4,17.4-5.4,17.4l1.4,22.3h1
				l-1.4-22.3C766.5,165.8,766,154.4,771.9,148.4z"/>
		</g>
		<path class="st17" d="M818.3,127.1c0,0-3.6,1.3-3.3,2.4c0.2,1.1,4.7,1.4,5.3,0.5C820.9,129.2,818.3,127.1,818.3,127.1z"/>
		<g>
			<path class="st12" d="M820.3,130.1c0.5-0.7-0.1-1.7-2.4-1.4c-1.2,0.1-2.3,0.5-2.9,0.9C815.4,130.6,819.7,130.9,820.3,130.1z"/>
		</g>
		<path class="st16" d="M840.2,118.6c-4.4,2.4-12.2-7.4-12-13c-7.2,7.5-19.8,6.2-20.7,3.5c-1.4-4.1,10.9-17.8,27-14.7
			c9.4,6.3,10.4,19.1,5.9,24.2L840.2,118.6z"/>
		<g>
			<path class="st26" d="M843.2,99.7c-0.4-0.8-0.9-1.5-1.4-2.1c-2.6,4.5-6.1,8.9-11.3,8.1c1.7-4.1,5.7-9,8.2-11.3
				c-0.7-0.6-1.2-0.9-1.2-0.9c-0.6-0.3-1.3-0.6-1.9-0.8c1,3.1-4,6.9-6.9,8.7c-6.9,4.2-16.1,6.5-20.8,5.1c-0.7,1.4-1,2.5,0.2,3.4
				c2.9,2.1,13.6,2.4,20-4.3c-0.1,5.7,7.6,15.4,12,13l1,7.9C848.4,119.6,847.5,107.4,843.2,99.7z"/>
		</g>
		<g>
			
				<ellipse transform="matrix(0.1581 -0.9874 0.9874 0.1581 591.3121 930.9949)" class="st17" cx="841.6" cy="118.8" rx="5.3" ry="3.1"/>
			
				<ellipse transform="matrix(0.1581 -0.9874 0.9874 0.1581 591.2971 930.9902)" class="st12" cx="841.6" cy="118.8" rx="3.1" ry="1.8"/>
		</g>
		<path class="st26" d="M828.2,105.6c-4.5,7.9-16.6,8.2-18.2,5.1l-0.6-0.2c2,6.1,16.9,2.9,19.8-3.9L828.2,105.6z"/>
		<path class="st16" d="M837.6,93.5c0,0-0.5-16.1,12.3-13.5c12.8,2.6,11.3,23.9,17.9,15.9c0,0-2.3,14.8-13.4,11.7
			c-11.1-3.1-8.3-24.1-16.6-13.9L837.6,93.5z"/>
		<path class="st26" d="M866.3,97.4c-0.2,0.1-0.4,0.2-0.6,0.3c-2.2,0.9-5.8,1.4-11.5-0.1c-11.1-3.1-8.1-16.3-16.4-6.1l-0.1-0.1
			c-0.1,1.3-0.1,2.2-0.1,2.2l0.3,0.2c8.3-10.1,5.5,10.9,16.6,13.9c9.9,2.7,12.8-8.7,13.3-11.2C867.4,96.7,866.9,97.1,866.3,97.4z"/>
		<path class="st26" d="M837.7,93.7c0,0,0.8-9.4,5.5-7.9c4.2,1.3,5.7,11.5,17.1,12.2c0.2,0,0.5,0,0-0.1c-11.4-1.4-13.1-15-18.8-13.4
			C841.6,84.5,837.4,84.5,837.7,93.7z"/>
		<g>
			<path class="st27" d="M840.7,124c-0.4-0.1-0.7-0.3-1-0.5c1.4,7.9-4.9,14-10.6,16.3c0,0,0,0,0,0c0.5,0.1,0.9,0.1,1.3,0
				c5.5-2.2,11.7-8.1,10.7-15.7C841,124,840.9,124,840.7,124z"/>
		</g>
		<path class="st15" d="M844.1,140.6c-0.6,23.2-2.5,27.4,0.2,33.8c2.7,6.4,32.2,23.4,28.1,41l20.5-6.3
			c-18.4-28.6-11.8-41.7-23.9-57.5C862.2,142.7,849.3,132.9,844.1,140.6z"/>
		<g>
			<path class="st15" d="M881,212.8l11.9-3.7c-11.4-17.9-13.2-29.7-15.8-39.9l-24.3-16.8c3.3,11.9,1.8,19.4,1,21
				c-0.7,1.6-5.1,3-8.3,2.8c5.9,6.9,27.6,21.1,27.2,36.1l0,0C874.9,212,877.8,212.2,881,212.8z"/>
		</g>
		<path class="st15" d="M892.8,209c0,0,2.1,3.9,3.4,8.9c1.3,5,0.6,15.2-6,22.7h-67c0,0-16.6-0.5-15.7-9.7
			C808.3,221.8,892.8,209,892.8,209z"/>
		<path class="st17" d="M807.4,231c0,0-1.7,7,3.7,12.2c0,0,6.8,1.4,7.9-4.1C820.2,233.7,810.7,226.3,807.4,231z"/>
		<path class="st17" d="M811.2,243.2c0,0,17.6,42.5,20.8,85.8c0,0,1.1,0,3.2,0c0.9-23.9,3.3-56.9-0.7-70.9
			c-8.6-15.5-15.4-19-15.4-19S809.1,238.3,811.2,243.2z"/>
		<path class="st28" d="M845.8,132.2l-4.1,7.8c0.1,2.5,0.1,5.2,1.3,8.2c0,0,2.5-9.7,7.9-10.2L845.8,132.2z"/>
		<g>
			<rect x="795.5" y="220.7" class="st19" width="3.3" height="114.7"/>
			<rect x="806.5" y="220.7" class="st19" width="3.3" height="114.7"/>
			<polygon class="st29" points="770.2,335.4 696.3,335.4 696.3,226 770.2,222.8 			"/>
			<polygon class="st29" points="836.7,222.8 696.3,227.4 696.3,201 836.7,201 			"/>
			<rect x="696.3" y="201" class="st30" width="140.4" height="9.1"/>
			<rect x="687" y="198.6" class="st19" width="166.3" height="4.8"/>
			<rect x="702.4" y="224.1" class="st31" width="61.8" height="101.4"/>
			<rect x="687" y="198.6" class="st20" width="166.3" height="1.1"/>
			<polygon class="st32" points="768.5,223.8 768.5,335.4 770.2,335.4 770.2,225 836.7,222.8 836.7,221.7 			"/>
		</g>
		<path class="st17" d="M891.3,180.8c0,0-8.5,0.6-18.4,3.2c-9.9,2.5-12.3,5.2-32.8,12.6c0,0.9,0,2.1,0,2.1s37.2-2.8,54.6-11.9
			L891.3,180.8z"/>
		<path class="st15" d="M862.8,166.5c6.8,5.4,29.7,22.1,31.9,20.2c2.2-1.9-9.3-16-21.1-28.2c-11.1-11.4-20.6-15.2-23.8-13.2
			C846.4,147.2,848.5,155.1,862.8,166.5z"/>
		<path class="st15" d="M887.3,181.2c-3.4,0.4-8.7,1.3-14.5,2.7l3.3,9.1c6.9-1.6,13.5-3.7,18.5-6.4
			C895.5,186.2,892.7,180.5,887.3,181.2z"/>
		<path class="st17" d="M840,196.5c0,0-7.4-3.2-9.8-2.4v4.5h9.8C840,198.6,841.2,197,840,196.5z"/>
		<path class="st17" d="M830.2,194.1c0,0-2.2,1.2-3.9,2c0,0-4.8,2.1-4.8,2.5h8.6C831.4,196.8,831,195.7,830.2,194.1z"/>
		<path class="st28" d="M870.6,183.7l3.5-1.2c0,0,3,3.8,3.3,4.9c0.2,0.8,1.4,6.2,1.4,6.2l-5.4,1.3c0,0-0.3-5.4-0.8-6.7
			C872.5,187.8,870.6,183.7,870.6,183.7z"/>
		<path class="st12" d="M804.7,132.5c0.4,0.8,0.7,1.9,0.3,2.1c-0.5,0.3-1.4-0.7-1.9-1.5c-0.6-0.8-1.1-1.4-0.1-2
			C803.7,130.6,804.3,131.7,804.7,132.5z"/>
		<path class="st12" d="M802.5,133.1c0.6,0.9,1.4,2.3,0.9,2.6c-0.5,0.3-1.7-0.9-2.5-1.8c-0.5-0.6-1.4-1.6,0-2
			C801.5,131.7,802.1,132.5,802.5,133.1z"/>
		<path class="st12" d="M800.6,134.2c0.6,0.8,1.4,2.2,0.9,2.5c-0.5,0.3-1.6-0.7-2.3-1.5c-0.7-0.7-1.2-1.2-0.2-1.9
			C799.6,132.9,800.2,133.6,800.6,134.2z"/>
		<path class="st12" d="M799,135.6c0.5,0.7,1.2,1.8,0.7,2.1c-0.4,0.2-1.3-0.5-2-1.2c-0.7-0.7-1.1-1-0.3-1.7
			C797.9,134.3,798.6,135,799,135.6z"/>
		<path class="st12" d="M807.6,137.8c0,0,2.4-3.4,1.3-3.7c-1.1-0.3-2.4,2.6-2.4,2.6L807.6,137.8z"/>
		<path class="st15" d="M896.7,220.8c-6,18.3-6.3,15.7-73.5,15.7c0,0-2-0.1-4.5-0.5c0.4,1.1,0.6,2.2,0.4,3.2c0,0,0.7,0.4,2,1.4
			c1.3,0.1,2.1,0.2,2.1,0.2h67C895.8,234.3,897.2,226.2,896.7,220.8z"/>
		<path class="st12" d="M823.5,198.6c0,0,5.1-1,6.7-1.2l1.3,1.2L823.5,198.6z"/>
		<g>
			<path class="st11" d="M878,190.1l-4.9,1.2c0.2,1.8,0.3,3.7,0.3,3.7l5.4-1.3C878.8,193.6,878.4,191.8,878,190.1z"/>
		</g>
		<g>
			<path class="st17" d="M828.9,332.1c0.7,1,6.2-3,6.2-3c-1.2-0.6-2.1-0.7-3.2,0c0,0-1.1,1.1-3.1,2.4
				C828.7,331.6,828.8,331.9,828.9,332.1z"/>
		</g>
		<g>
			<path class="st27" d="M873.1,190.6c-16.1,5-33.1,8.1-33.1,8.1s17-1.3,33.3-4.9C873.3,192.8,873.2,191.6,873.1,190.6z"/>
		</g>
	</g>
	<g class="st33">
		
			<linearGradient id="SVGID_2_" gradientUnits="userSpaceOnUse" x1="1413.0515" y1="313.3626" x2="1413.0515" y2="585.0696" gradientTransform="matrix(-1 0 0 -1 1660.72 619.9)">
			<stop  offset="0" style="stop-color:#808080;stop-opacity:0.25"/>
			<stop  offset="0.54" style="stop-color:#808080;stop-opacity:0.12"/>
			<stop  offset="1" style="stop-color:#808080;stop-opacity:0.1"/>
		</linearGradient>
		<path class="st34" d="M186.3,301.9l-1.3,1.5c0.4,0.1,0.8,0.2,1.2,0.3c0.8,0.2,1.6,0.4,2.4,0.6c0.5,0.1,1.1,0.3,1.6,0.4
			c3.8,0.8,7.6,1.4,11.5,1.7c2.1,0.2,4.2,0.2,6.3,0.2c0.4-0.6,0.8-1.2,1-1.9c0.9-2,4.2-5.5,7.8-9c-0.1,0.6-0.1,0.9-0.1,0.9v0.2
			l0,9.2l0.4,0c7-0.7,13.8-2.6,20.2-5.4c1-0.5,2-0.9,3-1.5l0.5-0.3l0.2-0.1c0.4-2.2,0.9-4.4,1.2-6.1l0-0.2c0-0.2,0.1-0.5,0.1-0.6
			c0-0.2,0.1-0.4,0.1-0.6s0-0.3,0.1-0.4c0.2-1.2,0.3-1.9,0.3-1.9c0-0.4,0.1-0.7,0.1-1.1l0,0c0.3-2,1.1-3.8,2.5-5.2
			c0.6-0.6,1-1.3,1.2-2.1l0,0c0.7-2.2,0.6-5.1,0.5-6.4c0-0.4-0.1-0.7-0.1-0.7s2.5-1.3,3.9-5.3c0.3-0.8,0.5-1.7,0.7-2.6
			c1.1-5.7,4.3-17.7,4.7-19.2l0,0l0-0.1c0,0,0.1-0.2,0.2-0.6c0,0,0-0.1,0-0.1l0.1-0.1l0,0c1.5-4,7.1-20.2,6.7-31
			c-0.5-12.4,0.8-18.8,0.8-18.8l1.5-26.9v-0.3l0.1-1.6v-0.4c0.2,0.2,0.4,0.3,0.6,0.4l0.4,0.3l0.1,0.1c0,0,0-0.1,0-0.3
			c0.2,0.2,0.4,0.3,0.4,0.3s0.6-10.5,0.6-16.4c0-0.7,0-1.3-0.1-1.9c4.4-1.5,11-3.9,11.4-5.2c0.3-1,2.8-3.3,4.9-5.1l1.2-1l0.6-0.5
			c0.8-0.7,1.4-1.1,1.4-1.1c-0.2,0-0.3-0.1-0.5-0.2c0.2-0.1,0.5-0.2,0.7-0.4c0.6-0.3,1.3-0.8,2-1.2c3.1-2.1,6.9-5.3,9-8.4
			c1.2-1.8,1.8-3.5,1.5-5c0-0.1-0.1-0.3-0.1-0.4l8.9-12.9l1-1.5c0.7-0.9,0.6-2.2-0.2-3.1l0-0.1l-0.1,0l-0.4-0.3l0.1,0.1
			c-0.6-0.3-1.3-0.2-1.7,0.4l-0.2,0.2l-8.6,12.4l-1.5,2.2c-3.4-1-8.3,1.8-12.1,4.8c-1.4,1.1-2.7,2.1-3.7,3l-0.6,0.6
			c-0.3-0.6-0.5-1.1-0.5-1.1c-0.2,2-7.4,5.1-9.1,6.2c-0.8,0.5-1.6,0.8-2.5,0.8c0.2-7.8-5.8-16-5.8-16l-11.6-14.9l0,0l-0.7-0.9
			l-2.3-2.9c-0.2-0.9-0.2-1.8-0.2-2.8c0-1.5,0.2-3,0.6-4.5c0.1-0.2,0.1-0.5,0.2-0.7c0.2-0.7,0.5-1.3,0.8-1.9
			c0.1-0.2,0.2-0.5,0.4-0.7h0.1c-0.3,0.9-0.5,1.8-0.7,2.7c-0.1,0.2-0.1,0.5-0.1,0.7l0,0.3c0,0.4-0.1,0.8-0.1,1.2c0,0,0,0.1,0,0.2
			c0.1,1.6,1.3,7.2,2.8,7c0.3,0,0.7-0.1,0.8-0.4c0.2-0.2,0.3-0.4,0.5-0.6c0.1-0.2,0.2-0.4,0.3-0.5c0.1-0.3,0.2-0.5,0.3-0.8
			c0.3-1.5,0.5-3,0.4-4.5c0,0.7-0.1,1.4-0.2,2.1c0.1-1.6-0.1-3.4-0.1-4.8c0-0.3,0-0.6,0-0.9s0-0.6,0-0.9l0,0c0-0.3,0-0.6,0-0.9h0.1
			h0.1c0,0.2,0,0.5,0,0.7c0-0.2,0-0.5,0-0.7h0.1h0.1c1.5-0.3,2.9-0.7,4.3-1.3c1.7-0.7,3.3-1.7,4.7-2.9c0.3,0,0.6-0.1,0.9-0.1
			c0.9-0.2,1.7-0.7,2.3-1.3l0.1-0.1c0.3,1,0.1,2.1-0.6,3c0,0,0,0.1-0.1,0.1h0.1c1.9-0.1,3.4-1.5,4.2-3.2c0-0.1,0.1-0.1,0.1-0.2
			c0.7-1.8,0.9-3.8,0.6-5.8c-0.3-1.9-0.4-3.9-0.4-5.8c0-0.5,0.1-0.9,0.1-1.4c0-0.1,0-0.1,0-0.2c0-0.5,0-1.1,0-1.6c0,0,0-0.1,0-0.1
			c0-0.3-0.1-0.6-0.2-0.8h0.1c0.4,0,0.8-0.2,1.1-0.6l0.1-0.1c0.1-0.1,0.3-0.3,0.4-0.4c0.1-0.2,0.3-0.4,0.4-0.6
			c0.2-0.5,0.3-1,0.4-1.6c0.6-2.2,0.8-4.4,0.8-6.7c0,0.6-0.1,1.4-0.2,2c0.2-2.6-0.2-5.1-1.9-6.9c-1.2-1.3-2.8-2-4.4-2.8
			c-0.6-0.2-1-0.6-1.4-1c-0.3-0.6-0.4-1.2-0.4-1.8c-0.6-3.8-4.1-6.4-7.6-7.9c-4.5-1.9-10-2.8-14.3-0.5c-2.1,1.1-3.8,2.9-5.7,4.4
			c-2.4,1.8-5.2,3.1-7.8,4.7c-2.6,1.6-5.1,3.6-6.3,6.4c-1.2,2.7-1,6-0.7,9.1c0.2,1.6,0.4,3.2,0.5,4.7c0,0.1,0,0.3,0,0.4
			c0.1,3.6-0.5,7.1-1.9,10.4c-1.4,3.4-3.7,6.3-6.7,8.5c-0.7,0.4-1.4,1-1.9,1.6c-0.5,0.7-0.6,1.6-0.2,2.3c0.2,0.2,0.3,0.4,0.5,0.5
			c0.2,0.2,0.4,0.3,0.6,0.5c0.1,0.2,0.3,0.4,0.3,0.6c0.2,0.6,0.2,1.3,0.1,1.9c0,0.1,0,0.1,0,0.2l-0.1,0.3c-0.9,3.2-2.6,6.2-5,8.5
			c0.1,0.8,1,1.1,1.8,1.2l0,0c2,0.3,4.1,0.4,6.1,0.4h0.9c-0.1,0.2-0.2,0.5-0.3,0.7l0,0c-0.2,0.6-0.4,1.2-0.6,1.8l0,0
			c-0.9,2.8-1.8,6.1-1.4,8.3c0.8,4.3,3,24.1,1.9,27.6c-1.1,3.5,1.7,28.8,1.7,28.8s0.1,0.4,0.2,1.1c0.2,0.9,0.5,2.2,0.8,3.8
			c0,0.1-0.1,0.1-0.1,0.2c-1.7,4.1-3.7,8.6-4.7,10.4c-1.3,2.5-1.4,11.5,0.8,19.9c1.1,4.3,2.8,8.4,5.2,11.2c0,0,2.4,3.4,2.3,5.2
			c0,0.1-0.1,0.3-0.1,0.4c-0.5,1-0.3,2.6,0,3.5c0.1,0.4,0.2,0.6,0.2,0.6v0.6l1.1,23.9c0,2.5-0.2,5-0.5,7.5c-3,3.7-7.6,9.1-9.8,10
			c-3.4,1.4-28.4,31.7-28.4,31.7s0.2,0.4,0.6,1L186.3,301.9z"/>
		<path class="st35" d="M286.4,137.7c-0.7,0.5-1.5,0.8-2.4,0.9c-3.1,0.1-5.7-8.4-5.7-8.4s0.9-0.9,2.3-2.2c4.2-3.7,13-10.6,17.1-6.8
			C302.4,125.6,291.8,134.8,286.4,137.7z"/>
		<path class="st35" d="M190.2,304.6c3.8,0.8,7.6,1.4,11.5,1.7c-1.6-2.9-12.3-6.3-12.3-6.3l-1.4,1.7l-0.7,0.8l-1,1.2
			c0.8,0.2,1.6,0.4,2.4,0.6C189.1,304.4,189.6,304.5,190.2,304.6z"/>
		<path class="st4" d="M286.4,137.7c-0.7,0.5-1.5,0.8-2.4,0.9c-3.1,0.1-5.7-8.4-5.7-8.4s0.9-0.9,2.3-2.2
			C281.6,130.4,284.5,136.6,286.4,137.7z"/>
		<path class="st36" d="M266.4,134.7c0,0,2.6,0.2,4.2-0.9c1.6-1.1,8.7-4.1,8.9-6.2c0,0,4.2,10.3,6.6,10.7c0,0-7.4,5.8-7.9,7.6
			c-0.5,1.8-14.9,6.3-14.9,6.3L266.4,134.7z"/>
		<path class="st37" d="M266.4,134.7c0,0,2.6,0.2,4.2-0.9c1.6-1.1,8.7-4.1,8.9-6.2c0,0,4.2,10.3,6.6,10.7c0,0-7.4,5.8-7.9,7.6
			c-0.5,1.8-14.9,6.3-14.9,6.3L266.4,134.7z"/>
		<path class="st4" d="M187.2,302.5c0.3,0.5,0.8,1.1,1.3,1.8c0.5,0.1,1.1,0.3,1.6,0.4c3.8,0.8,7.6,1.4,11.5,1.7
			c-1.6-2.9-12.3-6.3-12.3-6.3l-1.4,1.7L187.2,302.5z"/>
		<path class="st37" d="M187.3,300.7c0,0,0.2,0.4,0.6,1c0.7,1,1.4,2,2.3,3c3.8,0.8,7.6,1.4,11.5,1.7c2.1,0.2,4.2,0.2,6.3,0.2h0.9
			c0.2-0.4,0.5-0.8,0.6-1.3c0.8-1.9,3.8-5.2,7.1-8.4c0.2-0.2,0.3-0.3,0.5-0.5c4.7-4.6,9.8-8.9,9.8-8.9l0.5-31.5c0,0-1.1,1.5-2.7,3.5
			c-2.9,3.7-7.4,9-9.6,9.9C211.9,270.7,187.3,300.7,187.3,300.7z"/>
		<path class="st4" d="M187.3,300.7c0,0,0.2,0.4,0.6,1c0.7,1,1.4,2,2.3,3c3.8,0.8,7.6,1.4,11.5,1.7c2.1,0.2,4.2,0.2,6.3,0.2h0.9
			c0.2-0.4,0.5-0.8,0.6-1.3c0.8-1.9,3.8-5.2,7.1-8.4c0.2-0.2,0.3-0.3,0.5-0.5c4.7-4.6,9.8-8.9,9.8-8.9l0.5-31.5c0,0-1.1,1.5-2.7,3.5
			c-2.9,3.7-7.4,9-9.6,9.9C211.9,270.7,187.3,300.7,187.3,300.7z"/>
		<path class="st4" d="M200.2,296.2c2.7,0.3,5.5,0.3,8.2,0C213.2,295.7,209.6,298.7,200.2,296.2z"/>
		<path class="st4" d="M198,299.3c0,0,6.4,3.7,8.9,1.8C209.4,299.3,204.5,302.9,198,299.3z"/>
		<path class="st37" d="M223.9,221.9c0.3,0.6,0.3,1.2,0.1,1.8c-0.3,0.7-0.4,1.4-0.3,2.1c0,0.4,0.1,0.8,0.2,1.2
			c0.1,0.4,0.2,0.7,0.2,0.7l1.1,24.3c0,2.5-0.2,5-0.5,7.4c-0.3,2.6-0.9,5.2-1.9,6.8c-2.2,3.4-5.1,25.4-5.7,30.1l-0.1,0.9l0,8.8
			c7-0.7,13.8-2.6,20.2-5.4c1-0.5,2-0.9,3-1.5l0.5-0.3l0.2-0.1l0,0c0.4-2.3,0.9-4.4,1.2-6.1l0-0.2c0-0.2,0.1-0.5,0.1-0.6
			c0-0.2,0.1-0.4,0.1-0.6c0-0.2,0-0.3,0.1-0.4c0.1-0.7,0.2-1.1,0.2-1.1c0-0.6,0.1-1.2,0.3-1.8l0,0c0.3-1.7,1.1-3.2,2.3-4.5
			c0.7-0.8,1.2-1.8,1.4-2.9l0,0c0.4-2,0.4-4.1,0.2-6.2c0.1-0.1,0.2-0.2,0.4-0.3c0.8-0.5,2.8-2.2,3.9-6c0.2-0.5,0.3-1.1,0.4-1.7
			c1.1-6,4.7-19.1,4.7-19.1s0.1-0.4,0.4-1l0,0c0.1-0.2,0.2-0.5,0.3-0.7c0,0,0-0.1,0-0.1l0.1-0.1l0,0c1.9-5.3,6.5-19.7,6.1-29.6
			c-0.5-12.3,0.7-18.6,0.7-18.6l1.5-28.5v-0.4V168l0.1-2.7l-14.1-0.4h-0.8l-3.4-0.1h-0.1h-0.4l-4.5-0.1l-2-0.1l-3.6-0.1h-0.6H235
			l-2.8-0.1l-8.2,4.8c0,0-0.3,0.8-0.8,2.1c-0.1,0.3-0.2,0.6-0.4,0.9c-0.1,0.3-0.3,0.7-0.4,1.1l-1.2,2.8c-0.1,0.3-0.3,0.6-0.4,1
			c-1.7,4.1-3.7,8.7-4.7,10.5c-1.2,2.3-1.3,10.4,0.4,18.1c1.1,4.8,2.8,9.5,5.4,12.7C222.7,219.4,223.4,220.6,223.9,221.9z"/>
		<path class="st4" d="M233.1,287.4c0,0,5,4,7.1,4C242.3,291.3,233.1,287.4,233.1,287.4z"/>
		<path class="st35" d="M263.3,121.4v8.1l-5.3-2.3l-5.3-2.3l-11.6-11.4c0,0-9.2-6-14.1-11.4c-2.8-3.1-4.2-6-1.7-7.6
			c1.2-0.8,2.3-1.7,3.2-2.8c2.5-2.9,4.6-6.1,6.4-9.4c0.1-0.1,0.2-0.3,0.2-0.4c2.4-4.4,4-8.1,4-8.1s6.7,2.2,11,5.2
			c0.3,0.2,0.7,0.5,1,0.8c2.4,2,3.6,4.3,1.4,6.5c-0.6,0.6-1.1,1.2-1.6,1.9l0,0c-0.4,0.5-0.7,1-1,1.5c-0.1,0.2-0.3,0.5-0.4,0.7
			c-1.5,3-2,6.5-1.5,9.8L263.3,121.4z"/>
		<path class="st38" d="M262.4,63.7c0.3,0.5,0.6,0.9,0.9,1.4c0.5,1,0.5,2.3,0.4,3.4c-0.1,1.8,0,3.7,0.4,5.5c0.4,1.6,1.1,3.2,1.1,4.8
			c0.1,2.3-1.1,4.5-2.3,6.5c1.3,0,2.5-0.6,3.4-1.6c0.3,1.1,0.1,2.2-0.6,3c1.9-0.1,3.6-1.6,4.3-3.4c0.6-1.8,0.8-3.8,0.6-5.7
			c-0.3-1.9-0.4-3.8-0.4-5.8c0.1-1,0.2-2.1,0.2-3.1c-0.2-2.1-1.5-3.9-2.7-5.6l-2.5-3.4c-0.2-0.3-0.4-0.5-0.7-0.6
			C262,58.2,261.7,62.5,262.4,63.7z"/>
		<path class="st4" d="M252.5,86.3c-0.6,0.6-1.1,1.2-1.6,1.9l0,0c-0.4,0.5-0.7,1-1,1.5c-0.1,0.2-0.3,0.5-0.4,0.7
			c-3.3-0.2-6.4-1.2-9.2-2.9c-2-1.3-3.8-3-5.3-4.9c-0.1-0.1-0.2-0.2-0.2-0.3c0.1-0.1,0.2-0.3,0.2-0.4c2.4-4.4,4-8.1,4-8.1
			s6.7,2.2,11,5.2c0.3,0.2,0.7,0.5,1,0.8C253.5,81.7,254.7,84,252.5,86.3z"/>
		<path class="st35" d="M270,70.4c0,9.3-6.6,17.3-15.8,19c-1.2,0.2-2.3,0.3-3.5,0.3h-0.1c-0.2,0-0.4,0-0.6,0
			c-3.4-0.1-6.7-1.1-9.6-2.9c-2-1.3-3.8-2.9-5.3-4.9c-6.3-8.6-4.4-20.7,4.2-27c8.6-6.3,20.7-4.4,27,4.2
			C268.6,62.4,269.9,66.4,270,70.4z"/>
		<path class="st4" d="M253.2,118.2c0,0,9.7,5.5,7.2,0.9l-12.7-18.8l0,0l14.4,18.5c0,0,9.2,12.6,4.2,21.4c0,0-0.7,7.2,0.1,8.9
			c0.9,1.7-0.2,20-0.2,20s-3.4-3.2-5.3-2.6s-14.8,1.7-14.8,1.7L253.2,118.2z"/>
		<path class="st4" d="M265.3,165.2l-0.2,3.4c-1.2-0.8-2.8-1.8-3.9-1.4c-1.8,0.6-14.8,1.7-14.8,1.7l0.6-4.2L265.3,165.2z"/>
		<path class="st38" d="M253.5,118.2c0,0,9.7,5.5,7.2,0.9l-12.7-18.8l0,0l14.4,18.5c0,0,9.2,12.6,4.2,21.4c0,0-0.7,7.2,0.1,8.9
			c0.9,1.7-0.2,20-0.2,20s-3.4-3.2-5.3-2.6c-1.8,0.6-14.8,1.7-14.8,1.7L253.5,118.2z"/>
		<path class="st4" d="M258.8,127.6c-0.6,5.9-3,12.9-3,12.9s-1.7,17.4-3.9,22.6c-2.2,5.2-1.2,12.3-2.5,25.4c-0.4,4.7-1.9,8-4,10.2
			c-3.4,3.6-8.2,4.4-12,4.1c-0.3,0-0.6,0-0.9-0.1c-6.1-0.6-12-30.2-12-30.2s-2.8-25.1-1.7-28.6s-1.1-23-1.8-27.3
			c-0.5-2.7,0.9-7.2,2-10.1c0.6-1.7,1.2-2.8,1.2-2.8s2.1-6.6,5.5-10c1-1,2.3-1.5,3.6-1.5c1.6,0.1,3.2,0.6,4.5,1.4l0.2,0.1
			c0,0,22.3,22.8,24.4,28.1C258.9,123.2,259,125.3,258.8,127.6z"/>
		<path class="st37" d="M258,127.2c-0.6,5.9-3,12.9-3,12.9s-1.7,17.4-3.9,22.6c-2.2,5.2-1.2,12.3-2.5,25.4c-0.4,4.7-1.9,8-4,10.2
			c-3.4,3.6-8.2,4.4-12,4.1l-0.9-0.1c-6.1-0.6-12-30.2-12-30.2s-2.8-25.1-1.7-28.6c1.1-3.4-1.1-23-1.8-27.3c-0.5-2.7,0.9-7.2,2-10.1
			c0.6-1.7,1.2-2.8,1.2-2.8s2.1-6.6,5.5-10c1-1,2.3-1.5,3.6-1.5c1.6,0.1,3.2,0.6,4.5,1.4l0.2,0.1c0,0,22.3,22.8,24.4,28.1
			C258.2,122.8,258.2,124.9,258,127.2z"/>
		<path class="st4" d="M233,216.9c0,0-5.1,4.5-6.8,4.3C224.5,221.1,233,216.9,233,216.9z"/>
		<path class="st4" d="M234.4,221.3c0,0-5.3,2.5-6.9,2.8C225.8,224.5,232.3,220.6,234.4,221.3z"/>
		<path class="st4" d="M255,153.6c0,0,7.9,0.1,9.1,2.6C265.3,158.7,257.6,152.6,255,153.6z"/>
		<path class="st4" d="M253.9,157.9c0,0,6.1,1.3,7.9,2.8C263.6,162.1,253.9,157.9,253.9,157.9z"/>
		<path class="st4" d="M243.7,142.9c0,0-0.7,24.9-3.4,28.1C237.5,174.3,243.7,142.9,243.7,142.9z"/>
		<path class="st4" d="M236.9,213.4c0,0-5,22,5.1,23.4c10.2,1.4,7-25,7-25L236.9,213.4z"/>
		<path class="st35" d="M236.5,213c0,0-5,22,5.1,23.4c10.2,1.4,7-25,7-25L236.5,213z"/>
		<path class="st4" d="M269.8,68.3c-0.3-0.4-0.5-0.9-0.7-1.3c-1.4-2.8-4.8-1.4-7.4-0.1l-1.4,1.7c-0.6,0.7-1.1,1.5-1.6,2.4
			c-0.3,0.7-0.5,1.4-0.6,2.1c-0.3,1.2-0.9,2.4-1.3,3.6c-1.5,4-2.5,8.3-2.7,12.6c-1.2,0.2-2.3,0.3-3.5,0.3h-0.1v-0.1
			c0.1-0.5,0.2-1,0.3-1.5l0,0c0.5-2.8,0.6-5.6,0.2-8.4c0-0.1,0-0.1,0-0.2c-0.1-0.6-0.2-1.2-0.3-1.9c-0.2,0.4-0.5,0.9-0.7,1.3
			c-1.5,2.9-3.2,5.7-6.1,7c-1.2,0.5-2.4,0.7-3.7,0.8c-1.6,0.1-3.1,0.3-4.6,0.8c-0.5,0.1-1,0.4-1.3,0.8c-0.4,0.6-0.6,1.3-0.6,2
			c-0.2,1-0.4,1.9-0.7,2.8c-1.3,3.4-3.4,6.4-6,8.9l-0.6,0.6c-1.1,1.2-2.5,2.1-4,2.8c-1.4,0.5-2.8,0.7-4.2,0.6
			c0.6-1.7,1.2-2.8,1.2-2.8s2.1-6.6,5.5-10c1-1,2.3-1.5,3.6-1.5c2.5-3,4.8-6.3,6.6-9.9c-6.3-8.6-4.5-20.7,4.1-27s20.7-4.5,27,4.1
			C268.2,61.7,269.5,64.9,269.8,68.3L269.8,68.3z"/>
		<path class="st38" d="M271.1,53.3c-1.1-1.3-2.8-2-4.3-2.8c-0.5-0.2-1-0.6-1.4-1c-0.3-0.5-0.4-1.1-0.4-1.8c-0.5-3.7-4-6.3-7.5-7.8
			c-4.4-1.9-9.8-2.8-14.1-0.5c-2.1,1.1-3.7,2.9-5.6,4.3c-2.4,1.8-5.1,3.1-7.6,4.7c-2.5,1.6-4.9,3.6-6.1,6.3
			c-1.9,4.2-0.5,9.1-0.2,13.7c0.4,7.3-2.6,14.8-8.5,19.1c-0.7,0.4-1.3,1-1.9,1.6c-0.5,0.7-0.6,1.6-0.1,2.3c0.3,0.4,0.8,0.6,1.1,1
			c0.6,0.8,0.5,1.9,0.3,2.9c-0.8,3.2-2.5,6.1-4.9,8.4c0.1,0.8,1,1.1,1.8,1.2c2,0.3,4,0.4,6,0.4c3.2,0.3,6.3-1,8.4-3.4
			c3.6-3.4,6.6-7.6,7.4-12.4c0-0.7,0.3-1.4,0.6-2c0.4-0.4,0.8-0.7,1.3-0.8c2.7-0.9,5.7-0.5,8.3-1.6c3.4-1.5,5-5,6.8-8.3
			c0.1,0.6,0.2,1.3,0.3,1.9c0.5,3.4,0.3,6.8-0.5,10.1c-0.5,1.9-1.2,3.7-1.1,5.6c0,1.4,1.5,8.9,3.4,6.7c1.9-2.2,1.2-7.2,1.2-10
			c0-5.2,1-10.3,2.8-15.2c0.5-1.2,1-2.4,1.3-3.6c0.2-0.7,0.4-1.4,0.6-2.1c0.4-0.9,0.9-1.7,1.6-2.4l1.4-1.8c2.5-1.3,6-2.7,7.4,0.1
			c0.5,1.1,0.8,2.3,2.1,1.2c0.8-0.6,1.1-1.8,1.3-2.8C273,60.8,273.7,56.2,271.1,53.3z"/>
		<path class="st4" d="M245.2,120.7c-0.5-13.2-19-15.9-23.3-3.4c0,0.1-0.1,0.2-0.1,0.3c-2.8,8.5-1.6,29.9-1.6,29.9
			s0.4,14.4,1.7,19.2c1.4,4.8,5.1,18.5,5.1,20.7s3.5,10.7,5,11.3s2.2,5.4,2.6,6.3c0.3,0.9,1.5,12,1.5,12s13.9-0.9,14.1-3.1
			c0.2-2.2-3.1-13-3.1-13s-2.4-4.4-2.8-8s-2.3-5.2-1.9-7.6c0.4-2.4-1.1-3.7-1.1-5.3s-1.1-5.9-1.1-5.9s-2.3-1.8-1.9-4
			c0.4-2.2-3.3-6.6-2.3-8.2s1.2-5.5,1.2-5.5s1.2-17.7,2.1-22.4s5.9-12.5,5.9-12.5S245.2,121.1,245.2,120.7z"/>
		<path class="st4" d="M244.6,198.2c-3.4,3.6-8.2,4.4-12,4.1c-0.4-1.7-1.1-3.7-2-4.1c-1.5-0.6-5-9.1-5-11.3c0-2.2-3.8-15.9-5.2-20.7
			s-1.7-19.2-1.7-19.2s-1.2-21.4,1.6-29.9c0-0.1,0.1-0.2,0.1-0.3c4.3-12.5,22.8-9.8,23.3,3.4c0,0.4,0,0.6,0,0.6s-5,7.7-5.9,12.5
			c-0.9,4.8-2.1,22.4-2.1,22.4s-0.2,3.9-1.2,5.5c-1,1.6,2.7,6,2.3,8.2s1.9,4,1.9,4s1.1,4.3,1.1,5.9c0,1.6,1.5,2.8,1.1,5.3
			c-0.4,2.5,1.6,4,1.9,7.6C243.2,194.5,243.7,196.4,244.6,198.2z"/>
		<path class="st37" d="M244.5,120.4c-0.5-13.2-19-15.9-23.3-3.4c0,0.1-0.1,0.2-0.1,0.3c-2.8,8.5-1.6,29.9-1.6,29.9
			s0.4,14.4,1.7,19.2c1.4,4.8,5.2,18.5,5.2,20.7s3.5,10.7,5,11.3c1.5,0.6,2.2,5.4,2.6,6.3c0.4,0.9,1.5,12,1.5,12s13.8-0.9,14.1-3.1
			c0.2-2.2-3.1-13-3.1-13s-2.4-4.4-2.8-8s-2.3-5.1-1.9-7.6c0.4-2.5-1.1-3.7-1.1-5.3c0-1.6-1.1-5.9-1.1-5.9s-2.3-1.8-1.9-4.1
			c0.4-2.2-3.3-6.6-2.3-8.2c1-1.6,1.2-5.5,1.2-5.5s1.2-17.7,2.1-22.4c0.9-4.8,5.9-12.5,5.9-12.5S244.5,120.8,244.5,120.4z"/>
		<path class="st4" d="M221.7,154.3c0.4-0.4,7.4-8.1,9.6-5.3C233.5,151.8,221.7,154.3,221.7,154.3z"/>
		<path class="st4" d="M222.3,160.3c0.3-0.3,7-0.6,8.6-4.3C232.6,152.2,222.3,160.3,222.3,160.3z"/>
		<g class="st10">
			<path d="M214.7,92.5c0.2,0.2,0.3,0.4,0.4,0.6c0.3-0.8,0.1-1.8-0.4-2.5c-0.3-0.4-0.8-0.6-1.1-1l-0.1-0.1c-0.3,0.6-0.3,1.4,0.1,1.9
				C213.9,91.9,214.4,92.1,214.7,92.5z"/>
			<path d="M224.1,68.7c0-0.7,0-1.4,0-2.1c-0.1-2.5-0.6-5.1-0.7-7.6c-0.1,3.1,0.5,6.3,0.7,9.4C224.1,68.5,224,68.6,224.1,68.7z"/>
			<path d="M252.7,99.4c-1.7,2-3-3.7-3.3-6c0,0.4-0.1,0.8-0.1,1.2c0,1.4,1.5,8.9,3.4,6.7c1.3-1.5,1.4-4.1,1.3-6.5
				C254,96.5,253.7,98.3,252.7,99.4z"/>
			<path d="M250.9,78.8c0.1,1,0.2,1.9,0.3,2.9c0.1-1.6,0-3.2-0.3-4.7c-0.1-0.6-0.2-1.2-0.3-1.9c-1.8,3.3-3.4,6.8-6.8,8.3
				c-2.6,1.1-5.6,0.6-8.3,1.6c-0.5,0.1-1,0.4-1.3,0.8c-0.4,0.6-0.6,1.3-0.6,2c-0.8,4.8-3.8,9.1-7.4,12.4c-2.1,2.4-5.2,3.7-8.4,3.4
				c-2,0-4-0.1-6-0.4c-0.3,0-0.6-0.1-0.9-0.2c-0.3,0.3-0.6,0.6-0.9,0.9c0.1,0.8,1,1.1,1.8,1.2c2,0.3,4,0.4,6,0.4
				c3.2,0.3,6.3-1,8.4-3.4c3.6-3.4,6.6-7.6,7.4-12.4c0-0.7,0.3-1.4,0.6-2c0.4-0.4,0.8-0.7,1.3-0.8c2.7-0.9,5.7-0.5,8.3-1.6
				c3.3-1.5,5-5,6.8-8.3C250.7,77.6,250.8,78.2,250.9,78.8z"/>
			<path d="M272.4,62.9c-0.2,0.9-0.5,2.1-1.3,2.8c-1.3,1-1.6-0.1-2.1-1.2c-1.4-2.8-4.8-1.4-7.4-0.1l-1.4,1.7
				c-0.6,0.7-1.1,1.5-1.6,2.4c-0.3,0.7-0.5,1.4-0.6,2.1c-0.3,1.2-0.9,2.4-1.3,3.6c-1.9,4.9-2.8,10-2.8,15.2c0,0.2,0,0.5,0,0.8
				c0.1-4.8,1.1-9.6,2.8-14.1c0.5-1.2,1-2.4,1.3-3.6c0.2-0.7,0.4-1.4,0.6-2.1c0.4-0.9,0.9-1.7,1.6-2.4l1.4-1.8
				c2.5-1.3,6-2.7,7.4,0.1c0.5,1.1,0.8,2.3,2.1,1.2c0.8-0.6,1.1-1.8,1.3-2.8c0.6-2.2,0.8-4.4,0.7-6.6
				C273,59.7,272.8,61.3,272.4,62.9z"/>
		</g>
		<path class="st38" d="M289.1,132.4l0.4,0.3c-0.7-0.5-0.9-1.4-0.4-2.1c0,0,0,0,0,0l17-24.7c0.5-0.7,1.4-0.9,2.1-0.4l-0.4-0.3
			c1.1,0.8,1.4,2.3,0.7,3.4c0,0,0,0,0,0l-16,23.2C291.7,132.9,290.2,133.2,289.1,132.4C289.1,132.4,289.1,132.4,289.1,132.4z"/>
		<path class="st39" d="M307.9,105.2l0.4,0.3l0,0l-18.8,27.2l0,0l-0.4-0.3c-0.5-0.4-0.6-1.1-0.3-1.6l17.5-25.4
			C306.7,105,307.4,104.9,307.9,105.2z"/>
		<path class="st38" d="M305.9,109L305.9,109c0.1,0.1,0.1,0.2,0.1,0.2l-1.4,2c0,0.1-0.1,0.1-0.2,0l-0.1,0c-0.1,0-0.1-0.1,0-0.2
			l1.4-2C305.8,109,305.8,109,305.9,109z"/>
	</g>
</g>
</svg>
